<svg width="177" height="41" viewBox="0 0 177 41" fill="none" xmlns="http://www.w3.org/2000/svg">
<path d="M21.0911 0.548481C20.927 0.589516 20.886 0.63055 20.968 0.65517C21.0337 0.688 21.5097 0.843929 22.0267 1.01627C23.1593 1.39379 24.8581 2.23909 25.9496 2.9695C29.3226 5.21818 31.4892 8.13161 32.1047 11.2174C32.4822 13.1378 32.0144 16.8391 31.1199 19.0467C29.9709 21.8699 28.3542 23.6261 24.538 26.162C22.1498 27.7542 20.8531 28.8539 19.9832 30.0193C18.8507 31.5457 18.2598 33.4415 18.2598 35.5096C18.268 36.675 18.3911 37.5121 18.7111 38.4641C18.9491 39.1781 19.5729 40.4584 19.7124 40.4994C19.7616 40.5158 19.9832 40.1876 20.2048 39.769C20.7136 38.7842 21.8297 37.6352 22.7899 37.0936C24.538 36.1087 26.8195 35.7148 29.9627 35.8625C32.0719 35.961 33.0485 35.7559 33.6394 35.1075C33.7871 34.9352 33.9677 34.6561 34.0251 34.4838C34.1893 34.016 34.1564 33.0394 33.9431 32.2844C33.8446 31.9315 33.7789 31.636 33.7871 31.6278C33.8035 31.6196 34.0251 31.4801 34.2877 31.3242C35.4531 30.6348 35.5434 29.7731 34.5422 28.7636L34.0908 28.304L34.4437 28.2138C35.3382 27.984 35.8799 27.6557 35.9701 27.2618C36.085 26.7447 35.8881 26.1456 35.3792 25.4809C35.2069 25.2593 35.0838 25.0705 35.1002 25.0623C35.1166 25.0541 35.6337 24.9474 36.2492 24.8243C37.472 24.5863 38.3173 24.2663 38.6538 23.897C39.0231 23.503 38.9492 23.183 38.1614 21.6073C37.0781 19.4242 36.8647 18.4394 36.7252 14.9187C36.6759 13.7697 36.6021 12.5141 36.5528 12.1283C36.1343 8.63223 34.7801 6.18658 31.8421 3.65067C30.1515 2.18164 27.8946 1.13937 25.3915 0.671581C24.6283 0.523861 21.5097 0.441795 21.0911 0.548481Z" fill="url(#paint0_linear_6651_1088)"/>
<path d="M18.3423 2.14931C17.8089 2.256 17.259 2.56786 16.8897 2.95358C16.6025 3.25724 16.2085 3.98765 16.2085 4.21744C16.2003 4.59496 16.1511 4.60316 14.5179 4.54571C13.6644 4.52109 12.6796 4.49647 12.3267 4.49647C11.7932 4.49647 11.6783 4.47185 11.6455 4.34875C11.4075 3.62654 11.0875 3.24082 10.5048 2.97C9.69229 2.59248 8.84698 2.7402 8.20685 3.38855C7.59133 3.99585 7.41078 4.87399 7.74726 5.6044L7.89499 5.94088L6.62293 7.08163C5.92534 7.71356 5.19493 8.37011 4.99797 8.54245L4.64508 8.8461L4.27577 8.61631C4.0706 8.485 3.73412 8.32907 3.52894 8.27162C3.02833 8.1321 2.06813 8.19776 1.58392 8.41114C1.05048 8.65734 0.492411 9.19079 0.229792 9.74065C0.0328274 10.1346 0 10.2987 0 10.9388C0 11.5626 0.0328274 11.7513 0.213378 12.1288C0.508825 12.7608 0.845305 13.1219 1.45261 13.4501C1.93682 13.7128 2.01888 13.7292 2.74929 13.7292C3.54536 13.7292 3.77515 13.6635 4.39066 13.2614C4.62046 13.1137 4.29218 12.8346 8.01809 16.3636L8.74029 17.0447L8.57616 17.3976C8.39561 17.7998 8.36278 18.3989 8.5105 18.8913C8.64181 19.3427 9.32298 20.0238 9.77436 20.1551C10.5212 20.3767 11.3583 20.1962 11.8753 19.7038C12.0887 19.4986 12.1051 19.4986 12.3103 19.6299C12.4252 19.7038 12.5154 19.7366 12.5154 19.7038C12.5154 19.6627 12.5483 19.6791 12.5811 19.7284C12.6878 19.8761 13.4346 20.2536 13.5249 20.1962C13.5659 20.1716 13.5823 20.1798 13.5577 20.229C13.5249 20.2782 13.8367 20.4916 14.2307 20.7132L14.9611 21.1153L14.92 21.6898C14.8626 22.4202 15.0842 22.9865 15.593 23.4379L15.9377 23.7415L15.4699 25.0546L15.0021 26.3677L14.4358 26.417C12.893 26.5319 12.0723 28.083 12.8109 29.4535C13.0079 29.8064 13.5167 30.2578 13.8532 30.3727C13.9352 30.3973 13.9024 30.6107 13.5495 32.4736L13.451 33.0071L13.0407 33.0973C12.499 33.2204 12.179 33.401 11.8835 33.7375C11.506 34.1642 11.3419 34.6813 11.3829 35.2557C11.4403 35.8795 11.6291 36.2652 12.0723 36.6591C13.1884 37.6357 14.9365 37.1269 15.355 35.6907C15.6505 34.6813 15.2401 33.7785 14.1978 33.1794C14.0583 33.0973 14.0583 33.0563 14.1814 32.4408C14.2553 32.0797 14.3538 31.5052 14.4112 31.1523L14.5179 30.5286L14.9857 30.4383C16.1675 30.2003 16.8815 28.9939 16.5368 27.8121C16.4301 27.4346 16.069 26.9258 15.79 26.7617L15.5684 26.6303L16.028 25.2844L16.4958 23.9467H16.8322C18.1207 23.9467 19.1137 22.8962 18.9742 21.6734L18.9332 21.3123L19.5241 21.0497C19.8442 20.8938 20.7059 20.508 21.4363 20.1798L22.774 19.5725L23.1351 19.9828C23.3403 20.2044 23.7096 20.4916 23.9804 20.6229C24.399 20.8445 24.5385 20.8691 25.195 20.8691C25.868 20.8691 25.9911 20.8445 26.4835 20.5983C27.0416 20.3275 27.5832 19.8187 27.4847 19.6627C27.4519 19.6135 27.4601 19.5971 27.5094 19.6217C27.5586 19.6545 27.6817 19.4904 27.7884 19.2442C28.0674 18.6287 28.0674 17.5207 27.7802 16.9298C27.4765 16.2979 26.8446 15.7152 26.2291 15.4936L25.7121 15.3049L25.7613 14.1477C25.827 12.7608 25.8762 12.375 25.9911 12.375C26.1963 12.375 26.9349 11.9565 27.1811 11.7021C27.5504 11.3246 27.7145 10.8732 27.7145 10.2659C27.7063 9.14976 26.82 8.27162 25.6874 8.27162C25.3181 8.27162 24.8421 8.40293 24.7026 8.54245C24.6452 8.5999 24.4564 8.68196 24.7354 8.55886C24.8175 8.50962 24.8339 8.52603 24.7929 8.59169C24.7519 8.64914 24.678 8.67376 24.6123 8.64914C24.5549 8.62452 24.481 8.64093 24.4564 8.68196C24.3661 8.8379 24.202 8.76403 23.7999 8.39473C23.5701 8.18955 23.3649 8.02542 23.3403 8.02542C23.3157 8.02542 23.2008 7.94335 23.0859 7.83666C22.9792 7.73818 22.5524 7.38528 22.1339 7.0488C21.7153 6.71232 21.3788 6.41687 21.3788 6.39225C21.3788 6.36763 21.4527 6.13784 21.5512 5.89164C21.7481 5.37461 21.781 4.51289 21.6168 4.02868C21.1737 2.65814 19.7539 1.84566 18.3423 2.14931ZM16.2742 5.70288C16.3809 6.01474 16.4711 6.31839 16.4794 6.39225C16.4876 6.46612 15.8392 7.07342 14.8544 7.89411C13.9516 8.65734 13.1392 9.34672 13.0407 9.43699C12.8683 9.58472 12.8601 9.58472 12.4662 9.37955C12.2446 9.27286 11.8671 9.14976 11.6209 9.11693L11.1695 9.05127L11.0218 8.55886C10.9397 8.28804 10.792 7.75459 10.7017 7.37708C10.5376 6.75336 10.5376 6.6877 10.6525 6.62205C11.0875 6.37584 11.4814 5.8506 11.6455 5.29254C11.6866 5.16123 11.8671 5.15302 13.886 5.15302H16.0854L16.2742 5.70288ZM8.66643 6.63025C8.84698 6.72873 9.19988 6.82722 9.45429 6.86004L9.92208 6.91749L10.2257 7.94335C10.3981 8.50962 10.5376 9.04307 10.5376 9.14155C10.5458 9.24003 10.4227 9.39596 10.2175 9.55189C10.037 9.6832 9.88925 9.81451 9.88925 9.84734C9.88925 9.88017 9.8236 9.98685 9.74974 10.0771C9.66767 10.1674 9.56098 10.3644 9.51174 10.5121L9.42146 10.7747L8.32174 10.7665C7.71444 10.7583 6.84451 10.7501 6.39313 10.7501L5.56424 10.7337L5.515 10.4218C5.48217 10.2495 5.37549 9.93761 5.2688 9.72424L5.07183 9.33851L6.66396 7.90232C7.54209 7.11446 8.2725 6.46612 8.29712 6.46612C8.32174 6.46612 8.48588 6.53998 8.66643 6.63025ZM22.6919 8.31266C23.2992 8.79686 23.8163 9.21541 23.8327 9.23182C23.8573 9.24824 23.8245 9.39596 23.7588 9.5683C23.7014 9.73244 23.6521 10.1017 23.6521 10.3808C23.6521 10.668 23.6193 10.9224 23.5619 10.9635C23.5126 10.9963 22.7412 11.3738 21.8466 11.7924L20.2135 12.5474L19.8688 12.2273C19.6718 12.0468 19.3764 11.858 19.204 11.8006L18.8922 11.7021L18.9496 10.6188C18.9742 10.0279 19.0235 9.13334 19.0563 8.62452L19.1055 7.70535L19.4256 7.65611C19.7867 7.59045 20.6566 7.18011 20.8044 6.99956C20.8946 6.89287 20.9521 6.90928 21.2475 7.14728C21.4281 7.29501 22.0846 7.82025 22.6919 8.31266ZM17.3739 7.20473C17.5627 7.34425 17.8745 7.50018 18.0715 7.54942C18.2684 7.59866 18.4408 7.65611 18.4572 7.68894C18.4736 7.71356 18.4408 8.6081 18.3751 9.66679C18.3177 10.7255 18.2684 11.62 18.2602 11.6528C18.2602 11.6939 18.1864 11.7185 18.0961 11.7185C17.8007 11.7185 17.1933 12.0632 16.9143 12.3915L16.6353 12.7197L15.0842 12.1535L13.5413 11.5954L13.4921 11.062C13.4674 10.7665 13.4018 10.4464 13.3525 10.348C13.2951 10.2495 13.2541 10.151 13.2541 10.1264C13.2541 10.1017 13.7218 9.69141 14.3045 9.2072C14.879 8.723 15.4207 8.25521 15.5109 8.17314C15.8392 7.87769 16.9553 6.95853 16.9964 6.95853C17.0128 6.95853 17.1851 7.07342 17.3739 7.20473ZM9.19167 11.4313C9.40505 11.4641 9.4625 11.5215 9.53636 11.8252C9.65946 12.2684 10.1108 12.7936 10.5458 12.9906C10.833 13.1219 10.8741 13.1711 10.8412 13.3517C10.8166 13.4666 10.7181 14.1395 10.6197 14.8535L10.4391 16.1338L10.0944 16.183C9.91387 16.2159 9.63484 16.3143 9.48712 16.4046C9.2245 16.5605 9.20808 16.5605 9.04395 16.421C8.83057 16.2405 5.04721 12.6951 5.04721 12.6787C5.04721 12.6705 5.13749 12.4817 5.25238 12.2602C5.36728 12.0386 5.45755 11.8006 5.45755 11.7431C5.45755 11.6775 5.49038 11.5626 5.53142 11.4887C5.59707 11.3656 5.77762 11.3492 7.27947 11.3738C8.19043 11.382 9.06036 11.4066 9.19167 11.4313ZM24.5467 12.0304C24.678 12.1206 24.8996 12.2273 25.0227 12.2602L25.2525 12.3176L25.2032 13.3927C25.113 15.1736 25.0883 15.3295 24.8585 15.3295C24.5056 15.3295 23.7834 15.6578 23.4059 15.9943L23.0284 16.3143L21.7071 15.4526C20.4186 14.6155 20.3776 14.5745 20.4433 14.3611C20.4761 14.238 20.5089 13.9097 20.5089 13.6307L20.5171 13.1137L22.2406 12.293L23.964 11.4723L24.1281 11.6611C24.2184 11.7677 24.4072 11.9319 24.5467 12.0304ZM14.92 12.7608L16.4547 13.3188V13.7702C16.4547 14.3283 16.742 14.993 17.0949 15.2474C17.2344 15.3459 17.3657 15.428 17.3903 15.4198C17.4231 15.4116 17.5216 15.4772 17.6119 15.5675L17.7842 15.7316L17.3985 17.7669C17.1851 18.8831 17.0046 19.8104 17.0046 19.8104C16.9964 19.8187 16.8322 19.8433 16.6353 19.8515L16.2824 19.8843L15.7243 18.8174C15.4207 18.2265 14.6164 16.659 13.9352 15.3131L12.696 12.8839L12.9914 12.5474C13.1638 12.3668 13.3115 12.2109 13.3361 12.2109C13.3607 12.2109 14.0665 12.4571 14.92 12.7608ZM12.9832 14.8371C13.4346 15.7152 14.2389 17.2827 14.7723 18.3168L15.7325 20.188L15.5274 20.3931L15.3222 20.5983L13.8778 19.794L12.4334 18.9816L12.4826 18.4809C12.5729 17.5782 12.1543 16.7575 11.4157 16.3964C11.0792 16.2323 11.0546 16.2076 11.0875 15.9614C11.1121 15.8137 11.2106 15.1408 11.309 14.4678L11.4896 13.2368L11.7768 13.1875C11.9328 13.1629 12.0887 13.1629 12.1133 13.1875C12.1461 13.2121 12.5319 13.959 12.9832 14.8371ZM21.6661 16.1748C22.2077 16.5277 22.6591 16.8314 22.6673 16.8396C22.6837 16.856 22.6345 17.0365 22.5606 17.2499C22.4621 17.5289 22.4375 17.8326 22.4621 18.325L22.495 19.0144L20.6074 19.8679L18.7116 20.7214L18.3095 20.3685C18.0961 20.1716 17.8663 20.0074 17.8089 20.0074C17.7432 20.0074 17.6776 19.9746 17.6529 19.9418C17.6283 19.9007 17.7514 19.1539 17.9238 18.2758C18.1043 17.3976 18.2684 16.5195 18.3013 16.3143C18.3751 15.8465 18.4654 15.7399 18.7773 15.7399C19.0727 15.7399 19.6554 15.4772 19.8606 15.2474C20.0247 15.0669 19.9016 15.0094 21.6661 16.1748Z" fill="url(#paint1_linear_6651_1088)"/>
<ellipse cx="25.7503" cy="10.2889" rx="2.56089" ry="2.56089" fill="#4286FF"/>
<ellipse cx="25.1564" cy="18.2463" rx="2.84004" ry="2.84004" fill="#4286FF"/>
<path d="M44.4678 32.2567V8.59424H48.7609V19.4665H49.0502L58.296 8.59424H63.538L54.3732 19.2123L63.619 32.2567H58.458L51.3877 22.1123L48.7609 25.2088V32.2567H44.4678Z" fill="white"/>
<path d="M71.4502 32.6149C70.3239 32.6149 69.3094 32.4146 68.4068 32.0141C67.5119 31.6058 66.8022 31.005 66.2776 30.2117C65.7607 29.4183 65.5023 28.44 65.5023 27.277C65.5023 26.2756 65.6875 25.4476 66.0578 24.7929C66.428 24.1381 66.9333 23.6144 67.5737 23.2215C68.214 22.8287 68.9353 22.5321 69.7376 22.3319C70.5476 22.1239 71.3846 21.9737 72.2486 21.8813C73.2901 21.7734 74.1348 21.6771 74.7828 21.5924C75.4309 21.5 75.9015 21.3613 76.1946 21.1765C76.4955 20.9839 76.6459 20.6874 76.6459 20.2868V20.2175C76.6459 19.3471 76.3875 18.6731 75.8706 18.1956C75.3537 17.718 74.6093 17.4792 73.6372 17.4792C72.6112 17.4792 71.7973 17.7026 71.1956 18.1493C70.6016 18.5961 70.2004 19.1237 69.9921 19.7322L66.0809 19.1776C66.3895 18.0993 66.8986 17.1981 67.6084 16.474C68.3181 15.7423 69.186 15.1954 70.212 14.8334C71.238 14.4636 72.3721 14.2788 73.6141 14.2788C74.4704 14.2788 75.3229 14.3789 76.1715 14.5792C77.0201 14.7794 77.7954 15.1107 78.4974 15.5728C79.1994 16.0273 79.7626 16.6473 80.1869 17.433C80.6189 18.2187 80.8349 19.2008 80.8349 20.3793V32.2567H76.8079V29.8188H76.669C76.4145 30.3118 76.0557 30.7739 75.5929 31.2053C75.1377 31.6289 74.563 31.9717 73.8687 32.2336C73.1821 32.4878 72.3759 32.6149 71.4502 32.6149ZM72.5379 29.5415C73.3788 29.5415 74.1078 29.3759 74.725 29.0447C75.3421 28.7058 75.8166 28.259 76.1483 27.7044C76.4878 27.1499 76.6575 26.5452 76.6575 25.8905V23.7992C76.5263 23.9071 76.3026 24.0072 75.9863 24.0996C75.6777 24.1921 75.3306 24.2729 74.9449 24.3423C74.5591 24.4116 74.1773 24.4732 73.7992 24.5271C73.4212 24.581 73.0934 24.6272 72.8157 24.6658C72.1908 24.7505 71.6315 24.8891 71.1377 25.0817C70.644 25.2743 70.2544 25.5439 69.969 25.8905C69.6836 26.2294 69.5408 26.6684 69.5408 27.2076C69.5408 27.9779 69.8224 28.5594 70.3856 28.9523C70.9487 29.3451 71.6662 29.5415 72.5379 29.5415Z" fill="white"/>
<path d="M89.236 21.8582V32.2567H85.047V14.5099H89.0508V17.5254H89.2591C89.668 16.5318 90.3198 15.7423 91.2147 15.1569C92.1173 14.5715 93.2321 14.2788 94.559 14.2788C95.7856 14.2788 96.854 14.5407 97.7643 15.0644C98.6824 15.5882 99.3921 16.3469 99.8935 17.3406C100.403 18.3342 100.653 19.5397 100.646 20.9569V32.2567H96.4567V21.604C96.4567 20.4178 96.1481 19.4896 95.531 18.8195C94.9215 18.1493 94.0768 17.8143 92.9968 17.8143C92.2639 17.8143 91.612 17.976 91.0411 18.2995C90.478 18.6154 90.0344 19.0737 89.7104 19.6745C89.3941 20.2753 89.236 21.0032 89.236 21.8582Z" fill="white"/>
<path d="M110.019 32.6149C108.892 32.6149 107.878 32.4146 106.975 32.0141C106.081 31.6058 105.371 31.005 104.846 30.2117C104.329 29.4183 104.071 28.44 104.071 27.277C104.071 26.2756 104.256 25.4476 104.626 24.7929C104.997 24.1381 105.502 23.6144 106.142 23.2215C106.783 22.8287 107.504 22.5321 108.306 22.3319C109.116 22.1239 109.953 21.9737 110.817 21.8813C111.859 21.7734 112.703 21.6771 113.351 21.5924C113.999 21.5 114.47 21.3613 114.763 21.1765C115.064 20.9839 115.215 20.6874 115.215 20.2868V20.2175C115.215 19.3471 114.956 18.6731 114.439 18.1956C113.922 17.718 113.178 17.4792 112.206 17.4792C111.18 17.4792 110.366 17.7026 109.764 18.1493C109.17 18.5961 108.769 19.1237 108.561 19.7322L104.65 19.1776C104.958 18.0993 105.467 17.1981 106.177 16.474C106.887 15.7423 107.755 15.1954 108.781 14.8334C109.807 14.4636 110.941 14.2788 112.183 14.2788C113.039 14.2788 113.891 14.3789 114.74 14.5792C115.589 14.7794 116.364 15.1107 117.066 15.5728C117.768 16.0273 118.331 16.6473 118.755 17.433C119.187 18.2187 119.403 19.2008 119.403 20.3793V32.2567H115.377V29.8188H115.238C114.983 30.3118 114.624 30.7739 114.161 31.2053C113.706 31.6289 113.132 31.9717 112.437 32.2336C111.751 32.4878 110.945 32.6149 110.019 32.6149ZM111.107 29.5415C111.947 29.5415 112.676 29.3759 113.294 29.0447C113.911 28.7058 114.385 28.259 114.717 27.7044C115.056 27.1499 115.226 26.5452 115.226 25.8905V23.7992C115.095 23.9071 114.871 24.0072 114.555 24.0996C114.246 24.1921 113.899 24.2729 113.513 24.3423C113.128 24.4116 112.746 24.4732 112.368 24.5271C111.99 24.581 111.662 24.6272 111.384 24.6658C110.759 24.7505 110.2 24.8891 109.706 25.0817C109.213 25.2743 108.823 25.5439 108.538 25.8905C108.252 26.2294 108.109 26.6684 108.109 27.2076C108.109 27.9779 108.391 28.5594 108.954 28.9523C109.517 29.3451 110.235 29.5415 111.107 29.5415Z" fill="white"/>
<path d="M127.434 26.6877L127.423 21.6386H128.094L134.481 14.5099H139.376L131.519 23.2446H130.651L127.434 26.6877ZM123.616 32.2567V8.59424H127.805V32.2567H123.616ZM134.771 32.2567L128.985 24.1805L131.808 21.2342L139.781 32.2567H134.771Z" fill="white"/>
<path d="M145.987 26.6877L145.975 21.6386H146.646L153.034 14.5099H157.929L150.072 23.2446H149.204L145.987 26.6877ZM142.168 32.2567V8.59424H146.357V32.2567H142.168ZM153.323 32.2567L147.537 24.1805L150.361 21.2342L158.334 32.2567H153.323Z" fill="white"/>
<path d="M172.049 24.7929V14.5099H176.238V32.2567H172.176V29.1025H171.991C171.59 30.0961 170.931 30.9087 170.013 31.5404C169.102 32.172 167.98 32.4878 166.645 32.4878C165.48 32.4878 164.45 32.2297 163.555 31.7137C162.668 31.1899 161.974 30.4312 161.473 29.4375C160.971 28.4362 160.72 27.2269 160.72 25.8096V14.5099H164.909V25.1626C164.909 26.2872 165.218 27.1807 165.835 27.8431C166.452 28.5055 167.262 28.8367 168.265 28.8367C168.882 28.8367 169.48 28.6865 170.059 28.3861C170.637 28.0857 171.112 27.639 171.482 27.0459C171.86 26.4451 172.049 25.6941 172.049 24.7929Z" fill="white"/>
<defs>
<linearGradient id="paint0_linear_6651_1088" x1="23.4121" y1="33.4612" x2="38.6273" y2="6.09518" gradientUnits="userSpaceOnUse">
<stop stop-color="#743BFF"/>
<stop offset="1" stop-color="#349BFF"/>
</linearGradient>
<linearGradient id="paint1_linear_6651_1088" x1="6.99955" y1="30.9902" x2="16.9879" y2="3.15881" gradientUnits="userSpaceOnUse">
<stop stop-color="#743BFF"/>
<stop offset="1" stop-color="#349BFF"/>
</linearGradient>
</defs>
</svg>
