<svg width="177" height="40" viewBox="0 0 177 40" fill="none" xmlns="http://www.w3.org/2000/svg">
<path d="M21.0911 0.0479927C20.927 0.0890274 20.886 0.130062 20.968 0.154682C21.0337 0.187511 21.5097 0.343441 22.0267 0.515785C23.1593 0.893299 24.8581 1.7386 25.9496 2.46901C29.3226 4.71769 31.4892 7.63112 32.1047 10.7169C32.4822 12.6373 32.0144 16.3386 31.1199 18.5462C29.9709 21.3694 28.3542 23.1256 24.538 25.6616C22.1498 27.2537 20.8531 28.3534 19.9832 29.5188C18.8507 31.0453 18.2598 32.941 18.2598 35.0092C18.268 36.1745 18.3911 37.0116 18.7111 37.9636C18.9491 38.6776 19.5729 39.9579 19.7124 39.9989C19.7616 40.0153 19.9832 39.6871 20.2048 39.2685C20.7136 38.2837 21.8297 37.1347 22.7899 36.5931C24.538 35.6083 26.8195 35.2143 29.9627 35.3621C32.0719 35.4605 33.0485 35.2554 33.6394 34.607C33.7871 34.4347 33.9677 34.1556 34.0251 33.9833C34.1893 33.5155 34.1564 32.5389 33.9431 31.7839C33.8446 31.431 33.7789 31.1355 33.7871 31.1273C33.8035 31.1191 34.0251 30.9796 34.2877 30.8237C35.4531 30.1343 35.5434 29.2726 34.5422 28.2631L34.0908 27.8035L34.4437 27.7133C35.3382 27.4835 35.8799 27.1552 35.9701 26.7613C36.085 26.2442 35.8881 25.6451 35.3792 24.9804C35.2069 24.7588 35.0838 24.5701 35.1002 24.5618C35.1166 24.5536 35.6337 24.4469 36.2492 24.3238C37.472 24.0858 38.3173 23.7658 38.6538 23.3965C39.0231 23.0025 38.9492 22.6825 38.1614 21.1068C37.0781 18.9237 36.8647 17.9389 36.7252 14.4182C36.6759 13.2692 36.6021 12.0136 36.5528 11.6279C36.1343 8.13174 34.7801 5.6861 31.8421 3.15018C30.1515 1.68115 27.8946 0.638885 25.3915 0.171093C24.6283 0.0233727 21.5097 -0.0586929 21.0911 0.0479927Z" fill="url(#paint0_linear_6622_99149)"/>
<path d="M18.3423 1.64888C17.8089 1.75557 17.259 2.06744 16.8897 2.45316C16.6025 2.75681 16.2085 3.48722 16.2085 3.71701C16.2003 4.09453 16.1511 4.10273 14.5179 4.04528C13.6644 4.02066 12.6796 3.99604 12.3267 3.99604C11.7932 3.99604 11.6783 3.97142 11.6455 3.84832C11.4075 3.12612 11.0875 2.74039 10.5048 2.46957C9.69229 2.09206 8.84698 2.23978 8.20685 2.88812C7.59133 3.49543 7.41078 4.37356 7.74726 5.10397L7.89499 5.44045L6.62293 6.5812C5.92534 7.21313 5.19493 7.86968 4.99797 8.04202L4.64508 8.34567L4.27577 8.11588C4.0706 7.98457 3.73412 7.82864 3.52894 7.77119C3.02833 7.63168 2.06813 7.69733 1.58392 7.91071C1.05048 8.15692 0.492411 8.69036 0.229792 9.24022C0.0328274 9.63415 0 9.79829 0 10.4384C0 11.0621 0.0328274 11.2509 0.213378 11.6284C0.508825 12.2603 0.845305 12.6214 1.45261 12.9497C1.93682 13.2123 2.01888 13.2288 2.74929 13.2288C3.54536 13.2288 3.77515 13.1631 4.39066 12.761C4.62046 12.6132 4.29218 12.3342 8.01809 15.8631L8.74029 16.5443L8.57616 16.8972C8.39561 17.2993 8.36278 17.8984 8.5105 18.3909C8.64181 18.8422 9.32298 19.5234 9.77436 19.6547C10.5212 19.8763 11.3583 19.6957 11.8753 19.2033C12.0887 18.9982 12.1051 18.9982 12.3103 19.1295C12.4252 19.2033 12.5154 19.2362 12.5154 19.2033C12.5154 19.1623 12.5483 19.1787 12.5811 19.228C12.6878 19.3757 13.4346 19.7532 13.5249 19.6957C13.5659 19.6711 13.5823 19.6793 13.5577 19.7286C13.5249 19.7778 13.8367 19.9912 14.2307 20.2128L14.9611 20.6149L14.92 21.1894C14.8626 21.9198 15.0842 22.4861 15.593 22.9374L15.9377 23.2411L15.4699 24.5542L15.0021 25.8673L14.4358 25.9165C12.893 26.0314 12.0723 27.5825 12.8109 28.9531C13.0079 29.306 13.5167 29.7573 13.8532 29.8722C13.9352 29.8969 13.9024 30.1102 13.5495 31.9732L13.451 32.5066L13.0407 32.5969C12.499 32.72 12.179 32.9006 11.8835 33.237C11.506 33.6638 11.3419 34.1808 11.3829 34.7553C11.4403 35.379 11.6291 35.7648 12.0723 36.1587C13.1884 37.1353 14.9365 36.6265 15.355 35.1903C15.6505 34.1808 15.2401 33.2781 14.1978 32.679C14.0583 32.5969 14.0583 32.5559 14.1814 31.9404C14.2553 31.5793 14.3538 31.0048 14.4112 30.6519L14.5179 30.0282L14.9857 29.9379C16.1675 29.6999 16.8815 28.4935 16.5368 27.3117C16.4301 26.9342 16.069 26.4254 15.79 26.2612L15.5684 26.1299L16.028 24.784L16.4958 23.4463H16.8322C18.1207 23.4463 19.1137 22.3958 18.9742 21.173L18.9332 20.8119L19.5241 20.5493C19.8442 20.3933 20.7059 20.0076 21.4363 19.6793L22.774 19.072L23.1351 19.4824C23.3403 19.704 23.7096 19.9912 23.9804 20.1225C24.399 20.3441 24.5385 20.3687 25.195 20.3687C25.868 20.3687 25.9911 20.3441 26.4835 20.0979C27.0416 19.8271 27.5832 19.3182 27.4847 19.1623C27.4519 19.1131 27.4601 19.0966 27.5094 19.1213C27.5586 19.1541 27.6817 18.99 27.7884 18.7437C28.0674 18.1282 28.0674 17.0203 27.7802 16.4294C27.4765 15.7975 26.8446 15.2148 26.2291 14.9932L25.7121 14.8045L25.7613 13.6473C25.827 12.2603 25.8762 11.8746 25.9911 11.8746C26.1963 11.8746 26.9349 11.4561 27.1811 11.2017C27.5504 10.8241 27.7145 10.3728 27.7145 9.76546C27.7063 8.64933 26.82 7.77119 25.6874 7.77119C25.3181 7.77119 24.8421 7.90251 24.7026 8.04202C24.6452 8.09947 24.4564 8.18154 24.7354 8.05844C24.8175 8.00919 24.8339 8.02561 24.7929 8.09126C24.7519 8.14871 24.678 8.17333 24.6123 8.14871C24.5549 8.12409 24.481 8.1405 24.4564 8.18154C24.3661 8.33747 24.202 8.26361 23.7999 7.8943C23.5701 7.68913 23.3649 7.52499 23.3403 7.52499C23.3157 7.52499 23.2008 7.44292 23.0859 7.33623C22.9792 7.23775 22.5524 6.88486 22.1339 6.54837C21.7153 6.21189 21.3788 5.91645 21.3788 5.89183C21.3788 5.86721 21.4527 5.63741 21.5512 5.39121C21.7481 4.87418 21.781 4.01246 21.6168 3.52826C21.1737 2.15771 19.7539 1.34523 18.3423 1.64888ZM16.2742 5.20245C16.3809 5.51431 16.4711 5.81796 16.4794 5.89183C16.4876 5.96569 15.8392 6.573 14.8544 7.39368C13.9516 8.15692 13.1392 8.84629 13.0407 8.93657C12.8683 9.08429 12.8601 9.08429 12.4662 8.87912C12.2446 8.77243 11.8671 8.64933 11.6209 8.6165L11.1695 8.55084L11.0218 8.05844C10.9397 7.78761 10.792 7.25416 10.7017 6.87665C10.5376 6.25293 10.5376 6.18727 10.6525 6.12162C11.0875 5.87541 11.4814 5.35018 11.6455 4.79211C11.6866 4.6608 11.8671 4.65259 13.886 4.65259H16.0854L16.2742 5.20245ZM8.66643 6.12983C8.84698 6.22831 9.19988 6.32679 9.45429 6.35962L9.92208 6.41707L10.2257 7.44292C10.3981 8.0092 10.5376 8.54264 10.5376 8.64112C10.5458 8.7396 10.4227 8.89553 10.2175 9.05146C10.037 9.18277 9.88925 9.31408 9.88925 9.34691C9.88925 9.37974 9.8236 9.48643 9.74974 9.5767C9.66767 9.66698 9.56098 9.86394 9.51174 10.0117L9.42146 10.2743L8.32174 10.2661C7.71444 10.2579 6.84451 10.2497 6.39313 10.2497L5.56424 10.2332L5.515 9.92139C5.48217 9.74905 5.37549 9.43719 5.2688 9.22381L5.07183 8.83809L6.66396 7.40189C7.54209 6.61403 8.2725 5.96569 8.29712 5.96569C8.32174 5.96569 8.48588 6.03955 8.66643 6.12983ZM22.6919 7.81223C23.2992 8.29643 23.8163 8.71498 23.8327 8.7314C23.8573 8.74781 23.8245 8.89553 23.7588 9.06788C23.7014 9.23201 23.6521 9.60132 23.6521 9.88036C23.6521 10.1676 23.6193 10.422 23.5619 10.463C23.5126 10.4959 22.7412 10.8734 21.8466 11.2919L20.2135 12.047L19.8688 11.7269C19.6718 11.5463 19.3764 11.3576 19.204 11.3001L18.8922 11.2017L18.9496 10.1184C18.9742 9.52746 19.0235 8.63292 19.0563 8.12409L19.1055 7.20492L19.4256 7.15568C19.7867 7.09003 20.6566 6.67969 20.8044 6.49913C20.8946 6.39244 20.9521 6.40886 21.2475 6.64686C21.4281 6.79458 22.0846 7.31982 22.6919 7.81223ZM17.3739 6.7043C17.5627 6.84382 17.8745 6.99975 18.0715 7.04899C18.2684 7.09823 18.4408 7.15568 18.4572 7.18851C18.4736 7.21313 18.4408 8.10768 18.3751 9.16636C18.3177 10.225 18.2684 11.1196 18.2602 11.1524C18.2602 11.1934 18.1864 11.2181 18.0961 11.2181C17.8007 11.2181 17.1933 11.5628 16.9143 11.891L16.6353 12.2193L15.0842 11.653L13.5413 11.095L13.4921 10.5615C13.4674 10.2661 13.4018 9.94601 13.3525 9.84753C13.2951 9.74905 13.2541 9.65056 13.2541 9.62594C13.2541 9.60132 13.7218 9.19098 14.3045 8.70677C14.879 8.22257 15.4207 7.75478 15.5109 7.67271C15.8392 7.37727 16.9553 6.4581 16.9964 6.4581C17.0128 6.4581 17.1851 6.57299 17.3739 6.7043ZM9.19167 10.9308C9.40505 10.9637 9.4625 11.0211 9.53636 11.3248C9.65946 11.7679 10.1108 12.2932 10.5458 12.4901C10.833 12.6214 10.8741 12.6707 10.8412 12.8512C10.8166 12.9661 10.7181 13.6391 10.6197 14.3531L10.4391 15.6334L10.0944 15.6826C9.91387 15.7154 9.63484 15.8139 9.48712 15.9042C9.2245 16.0601 9.20808 16.0601 9.04395 15.9206C8.83057 15.74 5.04721 12.1947 5.04721 12.1783C5.04721 12.1701 5.13749 11.9813 5.25238 11.7597C5.36728 11.5381 5.45755 11.3001 5.45755 11.2427C5.45755 11.177 5.49038 11.0621 5.53142 10.9883C5.59707 10.8652 5.77762 10.8488 7.27947 10.8734C8.19043 10.8816 9.06036 10.9062 9.19167 10.9308ZM24.5467 11.5299C24.678 11.6202 24.8996 11.7269 25.0227 11.7597L25.2525 11.8172L25.2032 12.8923C25.113 14.6732 25.0883 14.8291 24.8585 14.8291C24.5056 14.8291 23.7834 15.1574 23.4059 15.4938L23.0284 15.8139L21.7071 14.9522C20.4186 14.1151 20.3776 14.0741 20.4433 13.8607C20.4761 13.7376 20.5089 13.4093 20.5089 13.1303L20.5171 12.6132L22.2406 11.7925L23.964 10.9719L24.1281 11.1606C24.2184 11.2673 24.4072 11.4314 24.5467 11.5299ZM14.92 12.2603L16.4547 12.8184V13.2698C16.4547 13.8278 16.742 14.4926 17.0949 14.747C17.2344 14.8455 17.3657 14.9276 17.3903 14.9194C17.4231 14.9112 17.5216 14.9768 17.6119 15.0671L17.7842 15.2312L17.3985 17.2665C17.1851 18.3826 17.0046 19.31 17.0046 19.31C16.9964 19.3182 16.8322 19.3428 16.6353 19.3511L16.2824 19.3839L15.7243 18.317C15.4207 17.7261 14.6164 16.1586 13.9352 14.8127L12.696 12.3834L12.9914 12.047C13.1638 11.8664 13.3115 11.7105 13.3361 11.7105C13.3607 11.7105 14.0665 11.9567 14.92 12.2603ZM12.9832 14.3367C13.4346 15.2148 14.2389 16.7823 14.7723 17.8164L15.7325 19.6875L15.5274 19.8927L15.3222 20.0979L13.8778 19.2936L12.4334 18.4811L12.4826 17.9805C12.5729 17.0778 12.1543 16.2571 11.4157 15.896C11.0792 15.7318 11.0546 15.7072 11.0875 15.461C11.1121 15.3133 11.2106 14.6403 11.309 13.9674L11.4896 12.7363L11.7768 12.6871C11.9328 12.6625 12.0887 12.6625 12.1133 12.6871C12.1461 12.7117 12.5319 13.4585 12.9832 14.3367ZM21.6661 15.6744C22.2077 16.0273 22.6591 16.3309 22.6673 16.3391C22.6837 16.3556 22.6345 16.5361 22.5606 16.7495C22.4621 17.0285 22.4375 17.3322 22.4621 17.8246L22.495 18.514L20.6074 19.3675L18.7116 20.221L18.3095 19.8681C18.0961 19.6711 17.8663 19.507 17.8089 19.507C17.7432 19.507 17.6776 19.4742 17.6529 19.4413C17.6283 19.4003 17.7514 18.6535 17.9238 17.7753C18.1043 16.8972 18.2684 16.0191 18.3013 15.8139C18.3751 15.3461 18.4654 15.2394 18.7773 15.2394C19.0727 15.2394 19.6554 14.9768 19.8606 14.747C20.0247 14.5665 19.9016 14.509 21.6661 15.6744Z" fill="url(#paint1_linear_6622_99149)"/>
<ellipse cx="25.7503" cy="9.78868" rx="2.56089" ry="2.56089" fill="#4286FF"/>
<ellipse cx="25.1564" cy="17.7462" rx="2.84004" ry="2.84004" fill="#4286FF"/>
<path d="M44.4678 31.7566V8.09412H48.7609V18.9664H49.0502L58.296 8.09412H63.538L54.3732 18.7122L63.619 31.7566H58.458L51.3877 21.6122L48.7609 24.7087V31.7566H44.4678Z" fill="black"/>
<path d="M71.4502 32.1147C70.3239 32.1147 69.3094 31.9145 68.4068 31.5139C67.5119 31.1057 66.8022 30.5049 66.2776 29.7115C65.7607 28.9182 65.5023 27.9399 65.5023 26.7768C65.5023 25.7755 65.6875 24.9475 66.0578 24.2927C66.428 23.638 66.9333 23.1142 67.5737 22.7214C68.214 22.3286 68.9353 22.032 69.7376 21.8317C70.5476 21.6238 71.3846 21.4736 72.2486 21.3811C73.2901 21.2733 74.1348 21.177 74.7828 21.0923C75.4309 20.9999 75.9015 20.8612 76.1946 20.6764C76.4955 20.4838 76.6459 20.1872 76.6459 19.7867V19.7174C76.6459 18.847 76.3875 18.173 75.8706 17.6954C75.3537 17.2179 74.6093 16.9791 73.6372 16.9791C72.6112 16.9791 71.7973 17.2025 71.1956 17.6492C70.6016 18.096 70.2004 18.6236 69.9921 19.2321L66.0809 18.6775C66.3895 17.5992 66.8986 16.6979 67.6084 15.9739C68.3181 15.2422 69.186 14.6953 70.212 14.3332C71.238 13.9635 72.3721 13.7787 73.6141 13.7787C74.4704 13.7787 75.3229 13.8788 76.1715 14.0791C77.0201 14.2793 77.7954 14.6105 78.4974 15.0727C79.1994 15.5271 79.7626 16.1472 80.1869 16.9329C80.6189 17.7185 80.8349 18.7006 80.8349 19.8791V31.7566H76.8079V29.3187H76.669C76.4145 29.8117 76.0557 30.2738 75.5929 30.7052C75.1377 31.1288 74.563 31.4716 73.8687 31.7335C73.1821 31.9877 72.3759 32.1147 71.4502 32.1147ZM72.5379 29.0414C73.3788 29.0414 74.1078 28.8758 74.725 28.5446C75.3421 28.2057 75.8166 27.7589 76.1483 27.2043C76.4878 26.6497 76.6575 26.0451 76.6575 25.3904V23.2991C76.5263 23.4069 76.3026 23.5071 75.9863 23.5995C75.6777 23.6919 75.3306 23.7728 74.9449 23.8421C74.5591 23.9115 74.1773 23.9731 73.7992 24.027C73.4212 24.0809 73.0934 24.1271 72.8157 24.1656C72.1908 24.2504 71.6315 24.389 71.1377 24.5816C70.644 24.7741 70.2544 25.0437 69.969 25.3904C69.6836 25.7293 69.5408 26.1683 69.5408 26.7075C69.5408 27.4778 69.8224 28.0593 70.3856 28.4522C70.9487 28.845 71.6662 29.0414 72.5379 29.0414Z" fill="black"/>
<path d="M89.236 21.358V31.7566H85.047V14.0097H89.0508V17.0253H89.2591C89.668 16.0317 90.3198 15.2422 91.2147 14.6568C92.1173 14.0714 93.2321 13.7787 94.559 13.7787C95.7856 13.7787 96.854 14.0405 97.7643 14.5643C98.6824 15.0881 99.3921 15.8468 99.8935 16.8404C100.403 17.8341 100.653 19.0395 100.646 20.4568V31.7566H96.4567V21.1038C96.4567 19.9176 96.1481 18.9895 95.531 18.3193C94.9215 17.6492 94.0768 17.3142 92.9968 17.3142C92.2639 17.3142 91.612 17.4759 91.0411 17.7994C90.478 18.1152 90.0344 18.5735 89.7104 19.1743C89.3941 19.7751 89.236 20.503 89.236 21.358Z" fill="black"/>
<path d="M110.019 32.1147C108.892 32.1147 107.878 31.9145 106.975 31.5139C106.081 31.1057 105.371 30.5049 104.846 29.7115C104.329 28.9182 104.071 27.9399 104.071 26.7768C104.071 25.7755 104.256 24.9475 104.626 24.2927C104.997 23.638 105.502 23.1142 106.142 22.7214C106.783 22.3286 107.504 22.032 108.306 21.8317C109.116 21.6238 109.953 21.4736 110.817 21.3811C111.859 21.2733 112.703 21.177 113.351 21.0923C113.999 20.9999 114.47 20.8612 114.763 20.6764C115.064 20.4838 115.215 20.1872 115.215 19.7867V19.7174C115.215 18.847 114.956 18.173 114.439 17.6954C113.922 17.2179 113.178 16.9791 112.206 16.9791C111.18 16.9791 110.366 17.2025 109.764 17.6492C109.17 18.096 108.769 18.6236 108.561 19.2321L104.65 18.6775C104.958 17.5992 105.467 16.6979 106.177 15.9739C106.887 15.2422 107.755 14.6953 108.781 14.3332C109.807 13.9635 110.941 13.7787 112.183 13.7787C113.039 13.7787 113.891 13.8788 114.74 14.0791C115.589 14.2793 116.364 14.6105 117.066 15.0727C117.768 15.5271 118.331 16.1472 118.755 16.9329C119.187 17.7185 119.403 18.7006 119.403 19.8791V31.7566H115.377V29.3187H115.238C114.983 29.8117 114.624 30.2738 114.161 30.7052C113.706 31.1288 113.132 31.4716 112.437 31.7335C111.751 31.9877 110.945 32.1147 110.019 32.1147ZM111.107 29.0414C111.947 29.0414 112.676 28.8758 113.294 28.5446C113.911 28.2057 114.385 27.7589 114.717 27.2043C115.056 26.6497 115.226 26.0451 115.226 25.3904V23.2991C115.095 23.4069 114.871 23.5071 114.555 23.5995C114.246 23.6919 113.899 23.7728 113.513 23.8421C113.128 23.9115 112.746 23.9731 112.368 24.027C111.99 24.0809 111.662 24.1271 111.384 24.1656C110.759 24.2504 110.2 24.389 109.706 24.5816C109.213 24.7741 108.823 25.0437 108.538 25.3904C108.252 25.7293 108.109 26.1683 108.109 26.7075C108.109 27.4778 108.391 28.0593 108.954 28.4522C109.517 28.845 110.235 29.0414 111.107 29.0414Z" fill="black"/>
<path d="M127.434 26.1876L127.423 21.1385H128.094L134.481 14.0097H139.376L131.519 22.7445H130.651L127.434 26.1876ZM123.616 31.7566V8.09412H127.805V31.7566H123.616ZM134.771 31.7566L128.985 23.6804L131.808 20.7341L139.781 31.7566H134.771Z" fill="black"/>
<path d="M145.987 26.1876L145.975 21.1385H146.646L153.034 14.0097H157.929L150.072 22.7445H149.204L145.987 26.1876ZM142.168 31.7566V8.09412H146.357V31.7566H142.168ZM153.323 31.7566L147.537 23.6804L150.361 20.7341L158.334 31.7566H153.323Z" fill="black"/>
<path d="M172.049 24.2927V14.0097H176.238V31.7566H172.176V28.6024H171.991C171.59 29.596 170.931 30.4086 170.013 31.0402C169.102 31.6718 167.98 31.9877 166.645 31.9877C165.48 31.9877 164.45 31.7296 163.555 31.2135C162.668 30.6898 161.974 29.9311 161.473 28.9374C160.971 27.9361 160.72 26.7268 160.72 25.3095V14.0097H164.909V24.6625C164.909 25.787 165.218 26.6805 165.835 27.343C166.452 28.0054 167.262 28.3366 168.265 28.3366C168.882 28.3366 169.48 28.1864 170.059 27.886C170.637 27.5856 171.112 27.1389 171.482 26.5458C171.86 25.9449 172.049 25.1939 172.049 24.2927Z" fill="black"/>
<defs>
<linearGradient id="paint0_linear_6622_99149" x1="23.4121" y1="32.9607" x2="38.6273" y2="5.59469" gradientUnits="userSpaceOnUse">
<stop stop-color="#743BFF"/>
<stop offset="1" stop-color="#349BFF"/>
</linearGradient>
<linearGradient id="paint1_linear_6622_99149" x1="6.99955" y1="30.4897" x2="16.9879" y2="2.65839" gradientUnits="userSpaceOnUse">
<stop stop-color="#743BFF"/>
<stop offset="1" stop-color="#349BFF"/>
</linearGradient>
</defs>
</svg>
