<svg width="14" height="14" viewBox="0 0 14 14" fill="none" xmlns="http://www.w3.org/2000/svg">
<g clip-path="url(#clip0_98_4034)">
<path fill-rule="evenodd" clip-rule="evenodd" d="M13.8291 3.0876C14.057 3.31541 14.057 3.68475 13.8291 3.91256L8.28748 9.45423C8.05967 9.68203 7.69033 9.68203 7.46252 9.45423L4.95833 6.95004L0.995812 10.9126C0.768006 11.1404 0.39866 11.1404 0.170854 10.9126C-0.0569515 10.6848 -0.0569515 10.3154 0.170854 10.0876L4.54585 5.7126C4.77366 5.4848 5.14301 5.4848 5.37081 5.7126L7.875 8.21679L13.0042 3.0876C13.232 2.8598 13.6013 2.8598 13.8291 3.0876Z" fill="#33B469"/>
<path fill-rule="evenodd" clip-rule="evenodd" d="M9.33301 3.50008C9.33301 3.17792 9.59418 2.91675 9.91634 2.91675H13.4163C13.7385 2.91675 13.9997 3.17792 13.9997 3.50008V7.00008C13.9997 7.32225 13.7385 7.58342 13.4163 7.58342C13.0942 7.58342 12.833 7.32225 12.833 7.00008V4.08341H9.91634C9.59418 4.08341 9.33301 3.82225 9.33301 3.50008Z" fill="#33B469"/>
</g>
<defs>
<clipPath id="clip0_98_4034">
<rect width="14" height="14" fill="white"/>
</clipPath>
</defs>
</svg>
