<svg width="38" height="30" viewBox="0 0 38 30" fill="none" xmlns="http://www.w3.org/2000/svg">
<path d="M37.337 15.879C35.7214 5.91626 28.794 -1.4028 22.6254 0.335173C21.328 0.70235 20.3 1.5591 16.1631 5.84283C14.009 8.07037 13.3481 8.60889 12.9809 8.4865C8.96644 6.91988 6.44514 8.87816 6.46962 13.578C6.46962 16.0748 6.59208 16.7357 7.39987 19.257C7.62018 19.9179 4.82956 22.5127 1.32914 26.2089C-1.48588 28.7791 1.47599 29.5625 5.71076 28.1917C13.0053 25.8417 11.8793 25.9396 14.4006 27.3594C18.5375 29.6849 23.9228 30.5416 26.3707 29.2687C26.8603 29.0239 27.1295 28.5099 27.0805 27.9469C27.0805 27.9224 26.8602 25.5235 26.8602 25.548C30.2138 24.2017 34.2527 22.8309 36.1621 21.4601C38.0714 20.0648 37.8021 18.7185 37.337 15.879ZM5.68638 25.9152C5.41712 25.9152 8.62377 22.3903 8.84408 22.1455C8.89303 22.4392 9.57843 23.5408 10.5576 24.2017C10.582 24.3241 6.12699 25.9152 5.68638 25.9152ZM30.483 20.5544C29.1122 20.8726 24.804 22.5861 23.2864 23.4428C22.1848 24.0548 22.1359 24.1282 22.2827 24.9116C22.8213 27.8979 22.9682 27.7266 20.3735 27.0657C14.4986 25.548 7.69354 14.0186 10.3862 10.1266C11.145 9.02503 12.1976 10.4203 12.2711 12.6478C12.3445 14.9978 14.4251 18.8654 15.8938 19.82C16.7506 20.383 17.1912 19.6976 16.9709 19.257C14.1314 14.0186 14.5965 12.6234 14.7923 11.8401C14.7923 11.8401 21.0343 5.52461 21.5484 4.9616C23.4332 2.95437 25.0978 2.85645 26.9336 4.6189C30.3117 7.89902 32.9064 13.1129 33.5673 17.8862C33.7142 19.1591 32.6861 20.0648 30.483 20.5544Z" fill="white"/>
</svg>
