<svg width="32" height="42" viewBox="0 0 32 42" fill="none" xmlns="http://www.w3.org/2000/svg">
<path fill-rule="evenodd" clip-rule="evenodd" d="M18.3802 1.51559C14.0476 3.717 4.28174 14.5835 1.09672 20.6725C-0.823653 24.3493 -0.589392 24.5601 5.6167 24.9114L10.0429 25.169C2.01012 39.2205 2.82977 37.7217 2.75951 37.8622C1.00307 40.8833 3.39183 42.8973 5.9211 40.532C5.94452 40.5086 27.6541 23.6467 31.5417 18.0496C31.9867 17.4172 31.8696 16.6912 30.886 15.9652C29.2701 14.7709 27.0921 14.3962 19.153 13.7404C17.9117 13.6467 17.3497 13.5062 17.4434 13.3189C18.0289 11.8903 20.2771 5.89497 21.3543 3.55305C22.619 0.813005 22.502 -0.592137 18.3802 1.51559ZM16.7642 6.7615C16.5534 7.25331 13.9539 13.4828 13.8368 13.7404C13.2279 14.9582 13.626 15.5906 15.1483 15.7545C20.2068 16.2931 22.2208 16.4805 24.2583 16.5742C27.6307 16.7381 27.6542 16.5976 24.0944 20.1807C20.3005 24.0215 10.605 32.9208 10.3942 32.71C10.2068 32.5226 13.3216 26.5742 14.1647 25.4735C15.687 23.4828 15.2185 23.2018 10.3708 23.2018C8.19277 23.2018 6.83446 23.1549 5.80401 23.0847C4.84382 23.0144 4.25832 21.984 4.7267 21.1175C6.48314 17.909 9.62136 13.9044 14.8439 8.16666C17.2326 5.59054 17.2794 5.5437 16.7642 6.7615Z" fill="white"/>
</svg>
