<svg width="51" height="50" viewBox="0 0 51 50" fill="none" xmlns="http://www.w3.org/2000/svg">
<path fill-rule="evenodd" clip-rule="evenodd" d="M14.4332 8.70661C12.1229 9.08425 13.6779 10.617 15.5884 10.8836C17.1878 11.1058 20.2533 11.1058 26.8509 11.0836C34.8925 11.0613 38.3357 11.1502 38.8467 11.3723C40.1129 11.9499 40.6683 14.1713 41.0237 20.1914C41.157 22.324 41.4235 25.5229 41.6235 27.3C42.2455 33.0091 41.6679 33.5644 34.3594 33.8532C31.5382 33.9643 27.8728 34.1864 26.229 34.3419C18.5428 35.075 13.7667 34.9417 11.101 33.8754C8.87959 32.9868 8.99071 32.276 8.92406 30.7876C8.76856 27.8998 8.83518 22.013 9.12397 16.6593C9.36833 12.172 9.65709 11.2835 11.101 10.617C11.9896 10.2172 11.6786 9.75069 10.5679 9.79511C8.90183 9.88397 7.61342 10.4393 7.36906 13.0384C7.05806 16.2373 5.08092 33.8088 8.63521 35.2971C10.9677 36.2746 15.0329 37.2298 16.6324 37.2298C17.7431 37.2298 17.6987 38.4738 16.588 38.807C14.0334 39.5401 15.8327 41.3172 19.2092 41.4505C26.0512 41.6726 36.0477 41.1173 36.1366 40.4731C36.2254 39.8289 34.7815 38.3627 34.0262 38.3627C33.7819 38.3627 33.6263 38.0739 33.6263 37.6518C33.6263 37.052 33.6263 36.2079 34.315 36.2079C37.2695 36.2079 38.8467 36.0746 39.7352 35.8747C44.067 34.9417 44.2448 32.0094 44.2003 30.2989C44.0448 23.3014 42.7342 16.6149 42.7342 15.0377C42.712 12.3054 41.1126 9.6174 37.6916 9.12869C36.3587 8.72883 16.7212 8.32897 14.4332 8.70661ZM26.0291 22.3018C25.7625 22.013 23.1856 19.1473 22.4748 18.4143C21.5862 17.5035 20.6754 17.7922 18.765 19.5472C17.7875 20.458 16.2548 21.8131 15.344 22.5906C12.1895 25.2563 11.9452 26.4558 14.5442 26.4558C15.4328 26.4558 15.8549 26.1448 18.4984 23.4347C21.9195 19.9248 21.6084 19.947 24.5851 22.8349C26.5844 24.7675 26.3401 24.7898 29.5834 22.2574C32.3824 19.6583 33.9818 17.9255 36.0033 15.904C38.0026 13.9048 34.937 12.994 33.3153 14.3713C31.4049 15.9485 26.0513 22.2796 26.0291 22.3018ZM33.2265 21.2577C32.8266 22.2796 33.0266 29.0994 33.4709 29.5214C34.5594 30.6099 35.2258 28.2774 35.1592 23.6568C35.1147 21.1022 33.8707 19.5694 33.2265 21.2577ZM20.3644 24.0345C19.6758 25.8561 20.2533 30.8321 21.6528 30.5877C23.0523 30.3434 22.0971 24.8564 21.7861 24.0567C21.5862 23.4791 20.5866 23.4569 20.3644 24.0345ZM29.4056 24.5454C29.0279 25.0119 28.6503 28.4551 28.8947 29.3881C29.3168 31.0542 31.0717 30.3211 31.0717 28.4774C31.0717 25.3896 30.2719 23.5013 29.4056 24.5454ZM16.7657 26.9224C16.4325 27.2556 16.5657 29.7435 16.9656 30.2767C17.6764 31.2541 18.2984 30.6322 18.2984 28.9216C18.2762 27.1445 17.521 26.1449 16.7657 26.9224ZM24.4296 26.9224C23.852 27.4999 24.2519 29.8768 24.9627 30.21C26.0957 30.721 26.4733 29.3215 25.7847 27.1C25.6736 26.7002 24.7628 26.5891 24.4296 26.9224ZM30.161 36.5856C31.0495 36.8299 30.7163 37.6297 30.8052 38.3627L20.5421 38.5404C20.5421 38.4738 20.7199 36.7188 20.7199 36.8299C21.4307 36.8077 27.9395 36.5412 28.8281 36.4745C29.1835 36.4301 29.8055 36.4967 30.161 36.5856Z" fill="white"/>
</svg>
