<svg width="40" height="40" viewBox="0 0 40 40" fill="none" xmlns="http://www.w3.org/2000/svg">
<path d="M17.5937 0.781246C17.1328 1.0625 17.0312 1.33593 17.0312 2.3125V3.17968L16.164 3.39062C15.3047 3.60156 14.1797 4 13.625 4.28125L13.3281 4.4375L12.8515 3.80468C12.2265 2.96093 11.9687 2.78906 11.3984 2.82812C10.9922 2.85937 10.8906 2.90625 10.039 3.52343C7.51559 5.34375 7.39059 5.46875 7.43747 6.17968C7.46872 6.57812 7.51559 6.6875 7.95309 7.26562L8.42966 7.91406L8.01559 8.39062C7.49216 8.99218 6.91403 9.79687 6.48434 10.5234C6.30466 10.8359 6.14841 11.0937 6.14059 11.0937C6.13278 11.0937 5.81247 10.9844 5.42966 10.8594C4.42184 10.5156 4.06247 10.5469 3.57028 11C3.39841 11.1641 3.22653 11.5937 2.72653 13.125C2.04684 15.1875 2.02341 15.375 2.34372 15.8984C2.53122 16.2031 2.67184 16.2812 3.55466 16.5469L4.25778 16.7656L4.21872 17.4297C4.16403 18.3594 4.17184 19.2266 4.23434 20.0156L4.29684 20.6875L3.53122 20.9375C2.92966 21.1328 2.71872 21.25 2.48434 21.4844C1.99216 21.9922 2.00778 22.1797 2.65622 24.1797C2.96872 25.125 3.24997 25.9297 3.28903 25.9687C3.35934 26.0469 4.53122 25.7187 4.53122 25.6172C4.53122 25.5859 4.28122 24.8437 3.98434 23.9766C3.67966 23.1094 3.44528 22.3906 3.45309 22.3828C3.46872 22.375 3.82028 22.25 4.24216 22.1094C5.57028 21.6719 5.67966 21.4844 5.54684 19.875C5.47653 19.0703 5.47653 18.5312 5.54684 17.6484L5.64059 16.4922L5.43747 16.1484C5.21091 15.7578 5.01559 15.6406 4.09372 15.3828L3.46091 15.2031L3.97653 13.6406C4.25778 12.7734 4.49216 12.0547 4.49997 12.0391C4.51559 12.0234 4.89059 12.125 5.33591 12.2656C6.04684 12.4766 6.19528 12.5 6.46872 12.4297C6.85153 12.3203 7.15622 12.0937 7.32028 11.7734C7.60934 11.1953 8.43747 9.98437 9.00778 9.3125C9.67966 8.51562 9.76559 8.34375 9.76559 7.88281C9.76559 7.5 9.66403 7.28906 9.14841 6.64843C8.92184 6.375 8.77341 6.125 8.80466 6.09375C9.03122 5.89843 11.4218 4.13281 11.4375 4.15625C11.4531 4.16406 11.6562 4.44531 11.8906 4.77343C12.4062 5.47656 12.6406 5.67187 13.039 5.74218C13.3515 5.79687 13.4218 5.77343 14.9218 5.1875C15.3281 5.03125 16.1093 4.78906 16.6562 4.64843C18.2187 4.25 18.3281 4.125 18.2968 2.75L18.2734 1.875H19.9531H21.625L21.6562 2.75C21.7031 4.07031 21.8906 4.32031 23.039 4.57812C23.8281 4.75 24.8281 5.07812 25.7343 5.46093C26.9609 5.99218 27.3672 5.875 28.0859 4.78906L28.5234 4.125L28.7734 4.3125C28.914 4.42187 29.5156 4.85156 30.1172 5.27343C30.7187 5.69531 31.2187 6.04687 31.2343 6.0625C31.25 6.07031 31.0625 6.34375 30.8281 6.67187C30.3203 7.35156 30.2343 7.54687 30.2343 8C30.2343 8.36718 30.4218 8.69531 30.9297 9.25781C31.4218 9.79687 31.9609 10.5391 32.4531 11.3516C33.1562 12.5078 33.5 12.625 34.7968 12.1875C35.2812 12.0234 35.4843 11.9844 35.5078 12.0547C35.914 13.1875 36.5625 15.1094 36.5468 15.1172C36.5312 15.125 36.1797 15.25 35.7578 15.3906C34.4218 15.8281 34.3125 16.0156 34.4531 17.6562C34.5156 18.4844 34.5156 19.0156 34.4531 19.8437C34.3203 21.4687 34.4453 21.7031 35.6875 22.0781C36.0625 22.1875 36.3984 22.3125 36.4297 22.3437C36.4687 22.375 36.2656 23.125 35.9843 24.0078C35.7031 24.8906 35.4687 25.625 35.4687 25.6406C35.4687 25.7266 36.6484 26.0391 36.7109 25.9687C36.8125 25.8672 37.8906 22.5 37.8906 22.2891C37.8906 21.9844 37.6484 21.4922 37.414 21.3203C37.289 21.2344 36.8672 21.0703 36.4687 20.9453L35.7422 20.7344L35.7812 20.0312C35.8359 19.0547 35.8281 18.2734 35.7656 17.4844L35.7031 16.8125L36.4687 16.5625C37.0703 16.3672 37.2812 16.25 37.5156 16.0156C38.0078 15.5078 37.9922 15.3359 37.3047 13.2031C36.9765 12.1953 36.6484 11.2812 36.5703 11.1719C36.3281 10.8359 35.9453 10.625 35.5859 10.625C35.3984 10.625 34.9453 10.7344 34.5781 10.8672C34.2031 11.0078 33.8906 11.1016 33.875 11.0859C33.8672 11.0703 33.7187 10.8359 33.5625 10.5625C33.164 9.89843 32.3984 8.88281 31.9297 8.38281L31.5468 7.97656L32.039 7.29687C32.4843 6.6875 32.5312 6.57812 32.5547 6.17968C32.6015 5.49218 32.4531 5.32812 30.7031 4.05468C29.8672 3.44531 29.1015 2.92187 29 2.88281C28.7265 2.77343 28.2187 2.79687 27.9765 2.92187C27.7109 3.0625 27.3906 3.41406 27.039 3.96875C26.8984 4.1875 26.75 4.375 26.7187 4.375C26.6797 4.375 26.4843 4.30468 26.2734 4.21093C25.6015 3.91406 24.5859 3.58593 23.789 3.40625L23.0078 3.22656L22.9687 2.28906C22.9218 1.25781 22.8437 1.05468 22.3984 0.781246C22.164 0.632809 21.9922 0.624996 20 0.624996C17.9922 0.624996 17.8359 0.632809 17.5937 0.781246Z" fill="white"/>
<path d="M18.3984 6.29688C14.25 6.89844 10.7578 9.35156 8.875 12.9688C8.07812 14.5156 7.60938 16.1875 7.52344 17.7891L7.47656 18.75H8.14062H8.80469L8.85156 17.8672C9 15.2969 10.1484 12.8125 12.1016 10.8594C13.2891 9.67188 14.3828 8.94531 15.8203 8.36719C18.4688 7.30469 21.4844 7.29688 24.0938 8.33594C25.6016 8.92969 26.7188 9.67969 27.9297 10.8906C29.875 12.8516 31.0078 15.3281 31.1484 17.9453L31.1953 18.75H31.8594H32.5234L32.4766 17.7891C32.3281 14.9297 31 12.0234 28.8594 9.89062C27.1719 8.20312 25.1641 7.09375 22.7344 6.50781C22.0234 6.33594 21.7031 6.3125 20.2734 6.28906C19.375 6.27344 18.5312 6.28125 18.3984 6.29688Z" fill="white"/>
<path d="M14.5312 13.2812C14.3828 13.4297 14.375 13.5391 14.375 16.7188V20H10.7812C7.28906 20 7.17969 20.0078 7.03125 20.1562C6.88281 20.3047 6.875 20.4141 6.875 23.5938V26.875H7.5H8.125V24.0625V21.25H11.25H14.375V23.4375V25.625H15H15.625V20V14.375H20H24.375V20V25.625H25H25.625V23.4375V21.25H28.75H31.875V24.0625V26.875H32.5H33.125V23.5938C33.125 20.4141 33.1172 20.3047 32.9688 20.1562C32.8203 20.0078 32.7109 20 29.2188 20H25.625V16.7188C25.625 13.5391 25.6172 13.4297 25.4688 13.2812C25.3125 13.125 25.2109 13.125 20 13.125C14.7891 13.125 14.6875 13.125 14.5312 13.2812Z" fill="white"/>
<path d="M17.1875 17.1875V18.125H18.125H19.0625V17.1875V16.25H18.125H17.1875V17.1875Z" fill="white"/>
<path d="M20.9375 17.1875V18.125H21.875H22.8125V17.1875V16.25H21.875H20.9375V17.1875Z" fill="white"/>
<path d="M17.1875 20.9375V21.875H18.125H19.0625V20.9375V20H18.125H17.1875V20.9375Z" fill="white"/>
<path d="M20.9375 20.9375V21.875H21.875H22.8125V20.9375V20H21.875H20.9375V20.9375Z" fill="white"/>
<path d="M9.375 23.75V24.375H10H10.625V23.75V23.125H10H9.375V23.75Z" fill="white"/>
<path d="M11.875 23.75V24.375H12.5H13.125V23.75V23.125H12.5H11.875V23.75Z" fill="white"/>
<path d="M26.875 23.75V24.375H27.5H28.125V23.75V23.125H27.5H26.875V23.75Z" fill="white"/>
<path d="M29.375 23.75V24.375H30H30.625V23.75V23.125H30H29.375V23.75Z" fill="white"/>
<path d="M19.1407 23.7891C18.9064 23.8594 18.5704 23.9922 18.3986 24.1016C17.9454 24.3672 17.3673 25.0156 17.1251 25.5312C16.9376 25.9297 16.9142 26.0703 16.9142 26.8359C16.9142 27.6406 16.9298 27.7266 17.1564 28.2031C17.2892 28.4844 17.547 28.8594 17.7345 29.0391L18.0626 29.3672L17.7189 29.4531C16.7657 29.7109 15.8204 30.4766 15.3907 31.3594C15.2501 31.6406 15.1251 31.875 15.1017 31.875C15.0861 31.875 14.9454 31.7891 14.7814 31.6875C14.6251 31.5781 14.3986 31.4688 14.2814 31.4453L14.0626 31.3906L14.4064 31.0078C14.8751 30.4844 15.0314 30.0078 14.9845 29.1875C14.9611 28.6719 14.9064 28.4766 14.7267 28.1406C13.9454 26.7109 12.0157 26.3906 10.7657 27.4922C10.6017 27.6328 10.3673 27.9609 10.2345 28.2188C10.0314 28.625 10.0001 28.7812 10.0001 29.2969C10.0001 30.0625 10.1564 30.5234 10.5939 31.0078L10.9376 31.3906L10.7189 31.4453C10.4142 31.5156 9.80481 31.9219 9.53137 32.2422L9.28919 32.5156L8.91419 32.2734C8.71106 32.1406 8.50012 32.0312 8.44544 32.0312C8.39075 32.0312 8.43762 31.9219 8.56262 31.7734C8.92981 31.3438 9.06262 30.9531 9.06262 30.3125C9.06262 29.8594 9.02356 29.6406 8.87512 29.3359C8.08606 27.6719 5.66419 27.6719 4.87513 29.3359C4.6095 29.8984 4.6095 30.7578 4.88294 31.3047C4.99231 31.5234 5.14856 31.7578 5.2345 31.8359C5.38294 31.9688 5.38294 31.9766 5.07825 32.125C4.66419 32.3359 4.18763 32.8203 3.96888 33.2656C3.797 33.6172 3.78919 33.7188 3.76575 35.7188C3.74231 37.7344 3.75013 37.8125 3.90638 37.9688C4.05481 38.1172 4.14856 38.125 6.40637 38.125C8.69544 38.125 8.75012 38.125 8.75012 38.2812C8.75012 38.3672 8.82044 38.5078 8.90637 38.5938C9.05481 38.7422 9.16419 38.75 12.0314 38.75C14.9454 38.75 15.0001 38.75 15.0001 38.9062C15.0001 38.9922 15.0704 39.1328 15.1564 39.2188C15.3126 39.375 15.4142 39.375 20.0001 39.375C24.5861 39.375 24.6876 39.375 24.8439 39.2188C24.9298 39.1328 25.0001 38.9922 25.0001 38.9062C25.0001 38.75 25.0548 38.75 27.9689 38.75C30.8361 38.75 30.9454 38.7422 31.0939 38.5938C31.1798 38.5078 31.2501 38.3672 31.2501 38.2812C31.2501 38.125 31.3048 38.125 33.5939 38.125C35.8517 38.125 35.9454 38.1172 36.0939 37.9688C36.2501 37.8125 36.2579 37.7344 36.2345 35.7188C36.2111 33.7188 36.2033 33.6172 36.0314 33.2656C35.8126 32.8203 35.3361 32.3359 34.922 32.125C34.6173 31.9766 34.6173 31.9688 34.7658 31.8359C34.8517 31.7578 35.0079 31.5234 35.1173 31.3047C35.5236 30.4844 35.3283 29.3125 34.6798 28.6953C33.5939 27.6641 31.7579 27.9922 31.1251 29.3359C30.9767 29.6406 30.9376 29.8594 30.9376 30.3125C30.9376 30.9531 31.0704 31.3438 31.4376 31.7734C31.5626 31.9219 31.6095 32.0312 31.5548 32.0312C31.5001 32.0312 31.2892 32.1406 31.0861 32.2734L30.7111 32.5156L30.4689 32.2422C30.1954 31.9219 29.5861 31.5156 29.2814 31.4453L29.0626 31.3906L29.4064 31.0078C29.8751 30.4844 30.0314 30.0078 29.9845 29.1875C29.9611 28.6719 29.9064 28.4766 29.7267 28.1406C28.9454 26.7109 27.0158 26.3906 25.7658 27.4922C25.6017 27.6328 25.3673 27.9609 25.2345 28.2188C25.0314 28.625 25.0001 28.7812 25.0001 29.2969C25.0001 30.0625 25.1564 30.5234 25.5939 31.0078L25.9376 31.3906L25.7189 31.4453C25.6017 31.4688 25.3751 31.5781 25.2189 31.6875C25.0548 31.7891 24.9142 31.875 24.8986 31.875C24.8751 31.875 24.7501 31.6406 24.6095 31.3594C24.1798 30.4844 23.2267 29.7109 22.2814 29.4531L21.9376 29.3672L22.2658 29.0391C22.4533 28.8594 22.7111 28.4844 22.8439 28.2031C23.0704 27.7266 23.0861 27.6406 23.0861 26.8359C23.0861 26.0234 23.0704 25.9453 22.8283 25.4531C22.5001 24.7812 21.8204 24.1406 21.1954 23.9062C20.6017 23.6797 19.7111 23.6328 19.1407 23.7891ZM20.6876 25.2031C21.3517 25.4766 21.797 26.1406 21.797 26.875C21.797 27.8906 21.0079 28.6719 19.9845 28.6719C18.4064 28.6641 17.6095 26.7812 18.6954 25.6328C19.1954 25.1094 20.0314 24.9297 20.6876 25.2031ZM13.1095 28.3594C14.1251 28.9766 13.6876 30.5469 12.5001 30.5469C11.8361 30.5469 11.3282 30.0391 11.3282 29.375C11.3282 28.4688 12.3361 27.8906 13.1095 28.3594ZM28.1095 28.3594C29.1251 28.9766 28.6876 30.5469 27.5001 30.5469C26.3126 30.5469 25.8751 28.9766 26.8908 28.3594C27.2267 28.1562 27.7736 28.1562 28.1095 28.3594ZM7.46887 29.7188C7.68762 29.9375 7.7345 30.0469 7.7345 30.3125C7.7345 30.5781 7.68762 30.6875 7.46887 30.9062C7.25012 31.125 7.14075 31.1719 6.87512 31.1719C6.6095 31.1719 6.50012 31.125 6.28137 30.9062C6.06262 30.6875 6.01575 30.5781 6.01575 30.3125C6.01575 30.0469 6.06262 29.9375 6.28137 29.7188C6.50012 29.5 6.6095 29.4531 6.87512 29.4531C7.14075 29.4531 7.25012 29.5 7.46887 29.7188ZM33.7189 29.7188C33.9376 29.9375 33.9845 30.0469 33.9845 30.3125C33.9845 30.5781 33.9376 30.6875 33.7189 30.9062C33.5001 31.125 33.3908 31.1719 33.1251 31.1719C32.8595 31.1719 32.7501 31.125 32.5314 30.9062C32.3126 30.6875 32.2658 30.5781 32.2658 30.3125C32.2658 30.0469 32.3126 29.9375 32.5314 29.7188C32.7501 29.5 32.8595 29.4531 33.1251 29.4531C33.3908 29.4531 33.5001 29.5 33.7189 29.7188ZM21.9689 30.7734C22.672 30.9922 23.3751 31.6953 23.6017 32.4062C23.6642 32.6016 23.7111 33.6094 23.7267 35.4141L23.7658 38.125H20.0079H16.2501V35.7188C16.2501 33.2188 16.3126 32.5234 16.5626 32.0234C16.922 31.3281 17.5782 30.8516 18.3673 30.7109C18.9142 30.6094 21.5939 30.6641 21.9689 30.7734ZM13.8829 32.7188C14.2892 32.9297 14.6017 33.25 14.797 33.6719C14.9376 33.9844 14.9611 34.2031 14.9845 35.7578L15.0157 37.5H12.5001H9.9845L10.0157 35.7578C10.0392 34.2031 10.0626 33.9844 10.2032 33.6719C10.4845 33.0781 10.9689 32.6875 11.6017 32.5703C12.1798 32.4609 13.547 32.5469 13.8829 32.7188ZM28.8829 32.7188C29.2892 32.9297 29.6017 33.25 29.797 33.6719C29.9376 33.9844 29.9611 34.2031 29.9845 35.7578L30.0158 37.5H27.5001H24.9845L25.0158 35.7578C25.0392 34.2031 25.0626 33.9844 25.2033 33.6719C25.4845 33.0781 25.9689 32.6875 26.6017 32.5703C27.1798 32.4609 28.547 32.5469 28.8829 32.7188ZM8.047 33.3281C8.64075 33.6719 8.74231 34.0312 8.75012 35.6797V36.875H6.86731H4.9845L5.01575 35.4844C5.03919 34.2734 5.05481 34.0703 5.19544 33.8359C5.53138 33.2656 5.92981 33.1172 7.03919 33.1562C7.6095 33.1719 7.8595 33.2188 8.047 33.3281ZM34.297 33.3281C34.8908 33.6719 34.9923 34.0312 35.0001 35.6797V36.875H33.1173H31.2345L31.2658 35.4844C31.2892 34.2734 31.3048 34.0703 31.4454 33.8359C31.7814 33.2656 32.1798 33.1172 33.2892 33.1562C33.8595 33.1719 34.1095 33.2188 34.297 33.3281Z" fill="white"/>
</svg>
