<svg width="40" height="40" viewBox="0 0 40 40" fill="none" xmlns="http://www.w3.org/2000/svg">
<g clip-path="url(#clip0_6646_1380)">
<path d="M15.4377 0.703125C13.1955 0.984375 11.0392 1.95312 9.3361 3.42969L8.78922 3.90625H6.5236C3.8986 3.91406 3.28922 3.96875 2.60172 4.29688C1.92985 4.60938 1.24235 5.29688 0.914221 5.99219L0.664221 6.52344L0.640783 17.2188C0.625158 26.8672 0.632971 27.9609 0.750158 28.3516C1.0861 29.5234 2.03141 30.4219 3.24235 30.7422C3.63297 30.8438 4.45328 30.8594 8.57047 30.8594H13.4377V32.4922V34.1328L11.1173 34.1562L8.78922 34.1797L8.26578 34.4297C7.60172 34.7422 7.09391 35.2109 6.82047 35.7734C6.60953 36.2031 6.60172 36.2422 6.60172 37.6016V39L6.82047 39.1875L7.03922 39.375H20.0002H32.9611L33.1798 39.1875L33.3986 39V37.6016C33.3986 36.2422 33.3908 36.2031 33.1798 35.7734C32.9064 35.2109 32.3986 34.7422 31.7345 34.4297L31.2111 34.1797L28.8908 34.1562L26.5627 34.1328V32.4922V30.8594H31.4298C35.547 30.8594 36.3673 30.8438 36.758 30.7422C37.9689 30.4219 38.9142 29.5234 39.2502 28.3516C39.3673 27.9609 39.3752 26.8672 39.3595 17.2188L39.3361 6.52344L39.0861 5.99219C38.5705 4.90625 37.5158 4.14062 36.3205 3.98438C36.0002 3.94531 33.3361 3.90625 30.3048 3.90625H24.8752L24.3283 3.42969C22.8752 2.15625 21.0939 1.28125 19.1252 0.859375C18.2892 0.679688 16.297 0.59375 15.4377 0.703125ZM13.3908 3.07031C13.008 3.46875 12.508 4.07812 12.2736 4.41406C12.0392 4.75781 11.8361 5.05469 11.8283 5.0625C11.797 5.10938 11.2658 4.92188 10.7111 4.67188L10.2189 4.45312L10.5158 4.20312C11.0236 3.79688 12.0783 3.13281 12.5548 2.91406C12.9455 2.74219 13.9689 2.35156 14.0548 2.34375C14.0705 2.34375 13.7658 2.67188 13.3908 3.07031ZM20.3595 2.60156C21.2033 2.90625 22.3752 3.58594 23.1564 4.21094L23.4611 4.45312L23.0392 4.63281C22.0627 5.0625 21.8673 5.11719 21.7892 4.98438C21.5705 4.60156 20.6798 3.47656 20.172 2.95312C19.547 2.30469 19.547 2.30469 20.3595 2.60156ZM16.172 4.14844V5.86719L15.6095 5.82031C14.7658 5.74219 13.422 5.54688 13.297 5.47656C13.0861 5.35938 14.3127 3.90625 15.4298 2.95312C15.7736 2.66406 16.0783 2.42188 16.1173 2.42188C16.1486 2.42188 16.172 3.19531 16.172 4.14844ZM18.4377 3.14844C19.0627 3.6875 19.6877 4.375 20.2345 5.125C20.422 5.38281 20.4455 5.46094 20.3517 5.49219C20.2033 5.55469 18.7814 5.75781 18.0705 5.82031L17.5002 5.86719V4.14062C17.5002 2.13281 17.4064 2.23438 18.4377 3.14844ZM7.29703 5.77344L6.93766 6.32031L5.32047 6.34375C3.56266 6.36719 3.44547 6.39844 3.1486 6.85156C3.01578 7.05469 3.00797 7.60938 3.00797 16.3516V25.6406L3.22672 25.8281L3.44547 26.0156H20.0002H36.5548L36.7736 25.8281L36.9923 25.6406V16.3516C36.9923 7.60938 36.9845 7.05469 36.8517 6.85156C36.5236 6.34375 36.7814 6.36719 31.5158 6.34375L26.7423 6.32031L26.3752 5.77344L26.008 5.22656L31.1486 5.25C36.7736 5.28125 36.508 5.25781 37.2111 5.75781C37.4689 5.9375 37.633 6.14062 37.8205 6.53125L38.0861 7.07031V17.4219V27.7734L37.8673 28.2188C37.7423 28.4688 37.4923 28.8047 37.297 28.9766C36.6095 29.5781 38.1017 29.5312 20.0002 29.5312C1.81266 29.5312 3.38297 29.5859 2.66422 28.9375C2.43766 28.7344 2.2111 28.4297 2.10172 28.1875L1.91422 27.7734L1.89078 17.7734C1.87516 11.6641 1.8986 7.58594 1.94547 7.28906C2.10953 6.20312 2.75016 5.51562 3.7736 5.32031C3.95328 5.28125 4.8986 5.25 5.88297 5.24219L7.65641 5.23438L7.29703 5.77344ZM9.81266 5.73438C10.1095 5.875 10.5314 6.05469 10.7423 6.13281C10.9611 6.21094 11.1408 6.28125 11.1564 6.28906C11.1642 6.29688 11.0705 6.53125 10.9455 6.80469C10.4611 7.875 10.047 9.52344 9.95328 10.7344L9.8986 11.4062H8.3361H6.7736L6.8361 10.8438C6.95328 9.65625 7.41422 8.25 8.0861 7.07812C8.43766 6.45312 9.14078 5.47656 9.22672 5.46875C9.25797 5.46875 9.5236 5.58594 9.81266 5.73438ZM24.9455 6.07812C25.3752 6.65625 26.2502 8.27344 26.2502 8.49219C26.2502 8.54688 26.2033 8.59375 26.1408 8.59375C25.922 8.59375 25.6408 8.91406 25.4767 9.35156L25.3048 9.80469L24.672 10.0547C23.9845 10.3203 23.7033 10.2969 23.6408 9.96875C23.4455 8.95312 23.133 7.85156 22.8517 7.14844C22.6642 6.67969 22.5158 6.28906 22.5236 6.28125C22.5314 6.28125 22.7502 6.19531 23.008 6.10156C23.2658 6.00781 23.672 5.82812 23.9064 5.70312C24.1408 5.57812 24.3752 5.47656 24.4142 5.47656C24.4611 5.46875 24.6955 5.74219 24.9455 6.07812ZM13.8283 6.9375C14.3673 7.02344 15.1095 7.125 15.4923 7.14844L16.172 7.20312V9.30469V11.4062H13.7033H11.2267L11.2736 10.8203C11.3752 9.69531 11.7345 8.30469 12.2111 7.24219C12.4298 6.75 12.4689 6.71094 12.6486 6.74219C12.758 6.75781 13.2892 6.85156 13.8283 6.9375ZM21.5002 7.40625C21.8439 8.23438 22.0861 9 22.2267 9.72656L22.3361 10.2734L21.7736 10.8359L21.2189 11.4062H19.3595H17.5002V9.30469V7.20312L18.1486 7.14844C18.8752 7.09375 20.2189 6.89844 20.6252 6.80469C21.1877 6.66406 21.1877 6.66406 21.5002 7.40625ZM6.25016 7.71094C6.25016 7.75 6.17985 7.96094 6.0861 8.19531C5.3986 10.0156 5.25797 12.6562 5.74235 14.6797C6.80485 19.0938 10.3205 22.4141 14.8048 23.25C15.883 23.4531 17.797 23.4531 18.8673 23.25C19.8673 23.0625 20.8595 22.7422 21.7892 22.2969C22.4689 21.9766 22.547 21.9609 22.7814 22.0469C23.008 22.125 23.1017 22.1172 23.547 21.9297L24.047 21.7266L24.6798 21.9766L25.3048 22.2266L25.4767 22.6797C25.7423 23.3984 25.8361 23.4375 27.1486 23.4375C28.4611 23.4375 28.547 23.3984 28.8205 22.6797L28.9923 22.2266L29.6252 21.9766L30.2502 21.7266L30.7423 21.9297C31.0939 22.0703 31.297 22.1172 31.4533 22.0781C31.5939 22.0391 31.9845 21.7109 32.4455 21.2578C33.1486 20.5547 33.2033 20.4766 33.2033 20.1875C33.2033 20.0234 33.1173 19.7109 33.0236 19.5L32.8439 19.1094L33.1173 18.4688C33.3908 17.8281 33.3908 17.8281 33.8048 17.6875C34.508 17.4453 34.5627 17.3359 34.5939 16.1875C34.6095 15.6172 34.5861 15.0781 34.5392 14.9141C34.4533 14.625 34.3752 14.5625 33.6486 14.2656C33.4923 14.2031 33.3361 14.0859 33.3127 14.0078C33.2814 13.9297 33.1642 13.6562 33.0548 13.3984L32.8361 12.9297L33.0236 12.5391C33.1173 12.3203 33.2033 12.0078 33.2033 11.8438C33.2033 11.5547 33.1486 11.4766 32.3986 10.7266C31.4845 9.8125 31.4142 9.78906 30.6877 10.1094L30.258 10.2969L29.6252 10.0547L28.9923 9.80469L28.8283 9.35156C28.6252 8.80469 28.4611 8.64844 28.0392 8.59375C27.7345 8.55469 27.7111 8.53125 27.5705 8.16406C27.4923 7.94531 27.422 7.75 27.422 7.71094C27.422 7.67969 29.2892 7.65625 31.5627 7.65625H35.7033V16.1719V24.6875H20.0002H4.29703V16.1719V7.65625H5.2736C5.81266 7.65625 6.25016 7.67969 6.25016 7.71094ZM27.6564 10.0156C27.6564 10.0703 27.7423 10.2969 27.8439 10.5156C28.0236 10.9062 28.0548 10.9219 28.5627 11.0859C28.8517 11.1797 29.2892 11.3594 29.5392 11.4922C30.0783 11.7578 30.258 11.7734 30.7502 11.5625L31.1173 11.3984L31.422 11.6953C31.7502 12.0156 31.758 12.0391 31.5158 12.6641L31.3752 13.0312L31.6095 13.4844C31.7423 13.7422 31.9142 14.1406 31.9923 14.375C32.2345 15.1172 32.297 15.1953 32.8127 15.3906L33.2814 15.5625V16.0156V16.4609L32.8205 16.6328C32.5705 16.7266 32.3283 16.8438 32.2892 16.8984C32.2502 16.9453 32.1173 17.2656 32.0002 17.6016C31.883 17.9375 31.7033 18.3672 31.6017 18.5703C31.3595 19.0156 31.3595 19.0781 31.5939 19.5781L31.7814 19.9844L31.4533 20.3047L31.1252 20.6328L30.7736 20.4766C30.3048 20.2578 30.0783 20.2734 29.547 20.5391C29.3048 20.6562 28.8595 20.8359 28.5627 20.9375L28.0314 21.1094L27.8048 21.6094L27.5783 22.1094H27.1408C26.7189 22.1094 26.7111 22.1094 26.5939 21.8125C26.3517 21.1797 26.3127 21.1484 25.6252 20.8906C25.258 20.7656 24.8127 20.5781 24.633 20.4844C24.2267 20.2734 23.9689 20.2734 23.5236 20.4766L23.172 20.6328L22.8752 20.3359C22.547 20.0156 22.5392 19.9922 22.7814 19.3594L22.922 18.9922L22.633 18.3828C22.4689 18.0469 22.2814 17.5781 22.2033 17.3438C22.0705 16.9297 22.0392 16.9062 21.5783 16.6797L21.0861 16.4453L21.1095 15.9844L21.133 15.5312L21.547 15.375C21.9767 15.2188 22.0783 15.0859 22.2658 14.4922C22.3205 14.3203 22.4845 13.9219 22.6408 13.6094L22.922 13.0312L22.7814 12.6719C22.5392 12.0391 22.547 12.0156 22.8752 11.6953L23.1798 11.3984L23.547 11.5625C24.0392 11.7734 24.2189 11.7578 24.758 11.4922C25.008 11.3594 25.4455 11.1797 25.7423 11.0859L26.2658 10.9141L26.4923 10.4219L26.7189 9.92188H27.1877C27.508 9.92188 27.6564 9.95312 27.6564 10.0156ZM9.92203 12.9844C9.92203 13.8984 10.297 15.5781 10.758 16.7578C11.1642 17.8047 11.1564 17.7812 10.8048 17.8906C10.6408 17.9453 10.2189 18.1328 9.85953 18.2969L9.2111 18.6016L9.05485 18.4219C8.53141 17.8047 7.76578 16.4922 7.41422 15.6094C7.18766 15.0312 6.89078 13.8047 6.82828 13.1797L6.7736 12.6562H8.35172H9.92203V12.9844ZM16.172 14.7578V16.8516L15.4142 16.9062C14.758 16.9531 13.5158 17.1406 12.6877 17.3125C12.4455 17.3594 12.4455 17.3594 12.1564 16.6719C11.672 15.5234 11.2502 13.7812 11.2502 12.9609V12.6562H13.7111H16.172V14.7578ZM21.3908 12.7812C21.4377 12.8672 21.3752 13.1016 21.1877 13.5469C20.9142 14.1797 20.9064 14.1953 20.5158 14.3281C19.7814 14.5859 19.7658 14.625 19.7658 15.9375V17.0859L19.3752 17.0234C19.1642 16.9922 18.6486 16.9375 18.2423 16.9062L17.5002 16.8516V14.7578V12.6562H19.4142C21.0705 12.6562 21.3283 12.6719 21.3908 12.7812ZM16.172 19.9219C16.172 20.8672 16.1486 21.6406 16.1252 21.6406C16.1017 21.6406 15.8283 21.4375 15.5236 21.1797C14.5002 20.3516 13.0939 18.7031 13.297 18.5859C13.4845 18.4844 15.1486 18.2422 15.8439 18.2188L16.172 18.2031V19.9219ZM19.5705 18.4141C20.0002 18.4766 20.383 18.5469 20.4142 18.5703C20.5627 18.6562 19.2814 20.1797 18.4377 20.9141C17.4064 21.8281 17.5002 21.9297 17.5002 19.9141V18.1797L18.1486 18.2344C18.5002 18.2656 19.1408 18.3438 19.5705 18.4141ZM12.0705 19.3516C12.383 19.8516 13.0861 20.7266 13.6017 21.2578C14.0627 21.7266 14.0548 21.7344 13.3048 21.4531C12.2892 21.0859 10.1486 19.7422 10.3048 19.5859C10.383 19.5078 11.6408 18.9844 11.758 18.9844C11.8048 18.9844 11.9377 19.1484 12.0705 19.3516ZM21.297 20.6797L21.4923 20.9297L21.0783 21.1406C20.8595 21.25 20.5314 21.3984 20.3595 21.4609C19.5627 21.75 19.5627 21.75 20.3127 20.9609C20.6955 20.5469 21.0236 20.1719 21.0236 20.125C21.0314 20.0781 21.0548 20.125 21.0705 20.2344C21.0939 20.3438 21.1955 20.5391 21.297 20.6797ZM25.2345 32.5V34.1406H20.0002H14.7658V32.5V30.8594H20.0002H25.2345V32.5ZM31.047 35.5938C31.5158 35.7578 31.9142 36.1328 32.0236 36.5234C32.0705 36.6953 32.1095 37.1094 32.1095 37.4375V38.0469H20.0002H7.89078V37.4375C7.89078 36.6562 8.00797 36.2656 8.32828 35.9688C8.86735 35.4531 8.17203 35.4844 19.9689 35.4766C29.6173 35.4688 30.7111 35.4844 31.047 35.5938Z" fill="white"/>
<path d="M25.9381 12.3672C24.524 12.8437 23.5475 14.0234 23.3365 15.5C23.0631 17.375 24.3053 19.25 26.1334 19.7265C27.0475 19.9609 28.2037 19.8359 28.9772 19.4062C31.5084 18.0312 31.6959 14.4375 29.3131 12.8359C28.3365 12.1797 27.0162 12 25.9381 12.3672ZM28.2037 13.7265C28.6959 13.9687 29.2037 14.4922 29.4459 15C29.7115 15.5703 29.7194 16.4218 29.4772 16.9687C29.2584 17.4531 28.7272 18.0156 28.2428 18.2656C27.9069 18.4453 27.7584 18.4765 27.149 18.4765C26.5397 18.4765 26.3912 18.4453 26.0553 18.2656C25.5709 18.0156 25.0397 17.4531 24.8209 16.9687C24.5631 16.3984 24.5865 15.5625 24.8678 14.9843C25.1256 14.4531 25.7662 13.8437 26.2584 13.6562C26.7584 13.4609 27.735 13.5 28.2037 13.7265Z" fill="white"/>
</g>
<defs>
<clipPath id="clip0_6646_1380">
<rect width="40" height="40" fill="white"/>
</clipPath>
</defs>
</svg>
