<svg width="40" height="40" viewBox="0 0 40 40" fill="none" xmlns="http://www.w3.org/2000/svg">
<g clip-path="url(#clip0_6646_1414)">
<path d="M17.9683 0.0546875C16.5308 0.203125 14.7808 0.59375 13.3198 1.09375C11.4917 1.71875 9.16359 3 7.54641 4.28125C6.74953 4.90625 5.07766 6.5625 4.41359 7.39062C2.24953 10.0703 0.851095 13.1719 0.226095 16.6953C0.0151577 17.8594 -0.0707798 20.8828 0.0698452 22.1172C0.483908 25.7578 1.81985 29.1406 4.01516 32.1172L4.22609 32.3906L4.00734 32.8594C3.80422 33.2812 3.78859 33.3984 3.78859 34.2188C3.78859 35.0625 3.80422 35.1484 4.03078 35.6328C4.34328 36.2891 4.92141 36.8672 5.60109 37.2031C6.10891 37.4531 6.16359 37.4609 7.03078 37.4609C7.88234 37.4609 7.96047 37.4453 8.45266 37.2109C10.4058 36.2891 10.9448 33.7422 9.55422 32.0469C9.21828 31.6406 8.74172 31.3125 8.13234 31.0859C7.53859 30.8672 6.52297 30.8672 5.93703 31.0859C5.61672 31.2109 5.49172 31.2266 5.41359 31.1562C5.35109 31.1094 5.03078 30.6562 4.69484 30.1641C3.06984 27.7266 2.04641 24.9219 1.71047 21.9609C1.57766 20.7656 1.65578 18.0859 1.85891 16.9531C2.21047 15.0234 2.64797 13.6875 3.51516 11.9062C6.24172 6.32031 11.6558 2.48438 17.9292 1.71875C18.9605 1.59375 21.2105 1.60938 22.2652 1.75781C23.9917 2 24.0698 2 24.3589 1.75781C24.5777 1.57812 24.6089 1.5 24.6089 1.17969C24.6089 0.476562 24.3589 0.351562 22.4839 0.117188C21.6167 0.0078125 18.7808 -0.03125 17.9683 0.0546875ZM7.79641 32.75C8.46047 33.0625 8.82766 33.875 8.64016 34.6016C8.42141 35.4453 7.78859 35.8984 6.92141 35.8438C6.03078 35.7891 5.46047 35.2188 5.40578 34.3281C5.35109 33.4688 5.80422 32.8281 6.62453 32.6094C7.05422 32.5 7.32766 32.5312 7.79641 32.75Z" fill="white"/>
<path d="M26.875 1.41415C26.5703 1.53915 26.4062 1.79696 26.4062 2.17196C26.4062 2.87508 27.1797 3.22665 27.7188 2.77352C28.4141 2.18758 27.7188 1.0704 26.875 1.41415Z" fill="white"/>
<path d="M31.9913 2.6016C30.7413 3.01566 29.8351 4.08597 29.6944 5.31253C29.4991 6.95316 30.3351 8.33597 31.8663 8.9141C32.4601 9.13285 33.4757 9.13285 34.0616 8.9141C34.3819 8.7891 34.5069 8.77347 34.5851 8.84378C34.8116 9.03128 35.921 10.7735 36.3507 11.6172C37.296 13.4688 37.9835 15.6953 38.2413 17.7266C38.4054 19.0235 38.3663 21.7344 38.171 22.8907C37.2804 28.0625 34.4366 32.4532 30.1163 35.3282C29.0772 36.0235 27.3976 36.875 26.2179 37.3047C23.4522 38.3203 20.2569 38.6172 17.1085 38.1641C16.5694 38.086 16.0304 38.0469 15.9132 38.0782C15.7882 38.1094 15.6319 38.2344 15.546 38.3828C15.1866 38.961 15.4757 39.5391 16.1944 39.6797C17.8429 40.0157 20.6866 40.1016 22.4991 39.8828C27.0616 39.3203 31.1163 37.2891 34.3741 33.9375C37.4444 30.7735 39.3429 26.8282 39.8819 22.5C40.0382 21.2188 40.0382 18.7344 39.8819 17.5235C39.4132 13.9766 38.1241 10.7813 35.9835 7.88285L35.7726 7.60941L35.9913 7.14066C36.1944 6.71878 36.2101 6.6016 36.2101 5.78128C36.2101 4.9141 36.2022 4.85941 35.9444 4.33597C35.6085 3.64847 35.046 3.1016 34.3741 2.78128C33.9288 2.57035 33.7726 2.5391 33.0851 2.52347C32.5929 2.50785 32.1866 2.5391 31.9913 2.6016ZM33.8585 4.37503C34.0147 4.48441 34.2413 4.71097 34.3585 4.88285C34.546 5.15628 34.5694 5.27347 34.5694 5.79691C34.5694 6.33597 34.546 6.42972 34.3351 6.7266C33.5069 7.89847 31.7179 7.56253 31.3585 6.1641C31.171 5.43753 31.5304 4.64066 32.2022 4.30472C32.671 4.06253 33.4444 4.1016 33.8585 4.37503Z" fill="white"/>
<path d="M17.0857 5.86719C16.8122 6.03125 16.7185 6.36719 16.7185 7.21094V8.02344L16.07 8.23438C15.7185 8.35156 15.0778 8.60938 14.6482 8.82031L13.8669 9.19531L13.2341 8.58594C12.6169 7.98438 12.5857 7.96875 12.2185 7.96875H11.8357L9.90597 9.90625C8.06222 11.75 7.96847 11.8516 7.96847 12.1328C7.96847 12.5391 8.10909 12.7656 8.69503 13.3516L9.20284 13.8438L8.82003 14.6328C8.6169 15.0703 8.35128 15.7188 8.23409 16.0703L8.02315 16.7188H7.21065C6.35909 16.7188 6.01534 16.8125 5.87472 17.0938C5.74972 17.3203 5.68722 22.4141 5.8044 22.7344C5.95284 23.1563 6.28097 23.2813 7.2419 23.2813H8.03097L8.27315 24C8.40597 24.3984 8.67159 25.0391 8.85909 25.4297L9.19503 26.1328L8.58565 26.7656C7.9919 27.3828 7.96847 27.4141 7.96847 27.7734V28.1484L9.78097 29.9766C10.781 30.9844 11.695 31.8594 11.8122 31.9219C12.2888 32.1719 12.6247 32.0391 13.3513 31.3047L13.8435 30.7969L14.6403 31.1719C15.07 31.375 15.7185 31.6406 16.0778 31.7578L16.7185 31.9688V32.7813C16.7185 33.6484 16.8122 33.9844 17.1013 34.1406C17.3122 34.25 22.6872 34.25 22.8982 34.1406C23.1872 33.9844 23.281 33.6484 23.281 32.7813V31.9688L23.9294 31.7578C24.281 31.6406 24.9294 31.375 25.3591 31.1719L26.156 30.7969L26.6482 31.3047C27.3747 32.0391 27.7107 32.1719 28.1872 31.9219C28.3044 31.8594 29.2185 30.9844 30.2185 29.9766L32.031 28.1484V27.7734C32.031 27.4141 32.0075 27.3828 31.4138 26.7656L30.7966 26.1328L31.1013 25.5391C31.2653 25.2109 31.531 24.5625 31.6872 24.1094L31.9685 23.2813H32.7653C33.7185 23.2813 34.0544 23.1563 34.195 22.7344C34.3122 22.375 34.3357 17.75 34.2107 17.3203C34.0778 16.8359 33.7966 16.7188 32.8044 16.7188H31.9763L31.7653 16.0703C31.6482 15.7188 31.3825 15.0703 31.1794 14.6328L30.7966 13.8438L31.3044 13.3516C32.0388 12.625 32.1716 12.2891 31.9216 11.8125C31.8591 11.6953 30.9841 10.7813 29.9841 9.78125L28.156 7.96875H27.781C27.4138 7.96875 27.3825 7.99219 26.7653 8.58594L26.1325 9.19531L25.3513 8.82031C24.9216 8.60938 24.281 8.35156 23.9294 8.23438L23.281 8.02344V7.21094C23.281 6.35156 23.1872 6.01563 22.8982 5.85938C22.695 5.75 17.2732 5.75781 17.0857 5.86719ZM21.6403 8.16406C21.6403 8.95313 21.6482 8.99219 21.8591 9.21094C22.0153 9.375 22.2419 9.47656 22.7341 9.60938C23.6013 9.83594 24.5622 10.2344 25.4138 10.7188C26.3357 11.2422 26.4685 11.2188 27.2263 10.4688L27.7732 9.92188L28.9216 11.0703L30.07 12.2188L29.4919 12.8203C28.7575 13.5703 28.7497 13.6641 29.2888 14.6094C29.781 15.4609 30.1794 16.4297 30.3982 17.2891C30.6403 18.2656 30.7653 18.3594 31.8435 18.3594H32.656V20V21.6406H31.8747C31.4528 21.6406 31.0153 21.6797 30.906 21.7266C30.7263 21.8125 30.4685 22.2109 30.4685 22.4141C30.4685 22.7188 29.8982 24.1875 29.445 25.0625C29.1169 25.6875 28.906 26.1953 28.906 26.3438C28.906 26.5391 29.0153 26.6953 29.4919 27.1797L30.07 27.7734L28.9294 28.9219L27.781 30.0703L27.1794 29.4922C26.695 29.0156 26.531 28.9063 26.3357 28.9063C26.195 28.9063 25.7185 29.1094 25.1403 29.4063C24.2028 29.8984 23.2419 30.2734 22.4607 30.4609C21.7419 30.6328 21.6403 30.8047 21.6403 31.8672V32.6563H19.9997H18.3591V31.8672C18.3591 30.8047 18.2575 30.6328 17.5388 30.4609C16.7575 30.2734 15.7966 29.8984 14.8591 29.4063C14.281 29.1094 13.8044 28.9063 13.6638 28.9063C13.4685 28.9063 13.3044 29.0156 12.82 29.4922L12.2185 30.0703L11.07 28.9219L9.9294 27.7734L10.5075 27.1797C10.9841 26.6953 11.0935 26.5391 11.0935 26.3438C11.0935 26.1953 10.8825 25.6875 10.5544 25.0625C10.1013 24.1875 9.53097 22.7188 9.53097 22.4141C9.53097 22.2109 9.27315 21.8125 9.09347 21.7266C8.98409 21.6797 8.54659 21.6406 8.12472 21.6406H7.34347V20.7578C7.34347 20.2813 7.3669 19.5391 7.39815 19.1172L7.44503 18.3594H8.21065C9.22628 18.3594 9.35909 18.2578 9.60128 17.2891C9.82003 16.4297 10.2185 15.4609 10.7107 14.6094C11.2497 13.6641 11.2419 13.5703 10.5075 12.8203L9.9294 12.2188L11.0778 11.0703L12.2263 9.92188L12.7732 10.4688C13.5388 11.2344 13.656 11.2422 14.656 10.6797C15.5466 10.1797 16.5935 9.75781 17.406 9.5625C17.8435 9.46094 18.0153 9.375 18.1638 9.20313C18.3435 8.99219 18.3591 8.90625 18.3591 8.15625V7.34375H19.9997H21.6403V8.16406Z" fill="white"/>
<path d="M19.0234 13.5625C16.875 13.9141 15.0156 15.3125 14.1094 17.2812C13.6562 18.25 13.5625 18.7344 13.5625 20C13.5625 21.2656 13.6562 21.75 14.1016 22.7109C14.9141 24.4688 16.4141 25.7344 18.3594 26.2969C19.0625 26.5 20.9141 26.5 21.6406 26.2969C23.9141 25.6719 25.6719 23.9141 26.2969 21.6406C26.5 20.9297 26.5 19.0703 26.2969 18.3594C25.6719 16.1016 23.9062 14.3203 21.6797 13.7109C21.2109 13.5859 19.4922 13.4922 19.0234 13.5625ZM21.0625 15.2734C23.25 15.7891 24.8438 17.7812 24.8438 20C24.8438 22.6406 22.6328 24.8438 20 24.8438C17.3672 24.8438 15.1562 22.6328 15.1562 20C15.1562 16.9375 18.1094 14.5703 21.0625 15.2734Z" fill="white"/>
<path d="M12.4215 37.1328C11.8746 37.4062 11.9059 38.289 12.4762 38.5547C12.9996 38.8047 13.5543 38.5156 13.6481 37.9453C13.7496 37.289 13.0465 36.8203 12.4215 37.1328Z" fill="white"/>
</g>
<defs>
<clipPath id="clip0_6646_1414">
<rect width="40" height="40" fill="white"/>
</clipPath>
</defs>
</svg>
