<svg width="40" height="40" viewBox="0 0 40 40" fill="none" xmlns="http://www.w3.org/2000/svg">
<path d="M17.4613 1.25781C17.1097 1.35156 16.6019 1.82031 16.4144 2.21094C16.2659 2.51562 16.2503 2.6875 16.2503 3.99219V5.42969L15.6097 5.64844C15.2503 5.77344 14.6956 6.00781 14.3753 6.17188L13.7894 6.46875L12.7738 5.46875C11.8753 4.58594 11.7113 4.45312 11.3363 4.34375C10.805 4.1875 10.6019 4.1875 10.0784 4.34375C9.69563 4.46094 9.52376 4.60156 8.1097 6C6.3597 7.72656 6.1722 8 6.1722 8.78125C6.18001 9.49219 6.3597 9.79688 7.41438 10.8828L8.3597 11.8516L8.05501 12.5234C7.88313 12.8906 7.6722 13.4375 7.57063 13.7344L7.39876 14.2891L5.85188 14.3125L4.31282 14.3359L3.97688 14.5703C3.78938 14.7031 3.53157 14.9609 3.39876 15.1484L3.16438 15.4844L3.14095 17.9141C3.12532 19.9688 3.14095 20.3984 3.24251 20.6719C3.46126 21.2422 4.05501 21.7109 4.71126 21.8281L5.00032 21.8828V21.2109C5.00032 20.5859 4.99251 20.5391 4.82063 20.4766C4.43001 20.3281 4.41438 20.25 4.39095 18.3672C4.3597 16.3984 4.39876 15.9922 4.61751 15.7734C4.75813 15.6328 4.89095 15.625 6.59407 15.625H8.4222L8.51595 15.2109C8.75032 14.2344 9.3597 12.7812 9.89876 11.9297L10.0941 11.625L8.7972 10.3203C7.72688 9.23438 7.50032 8.97656 7.50032 8.78906C7.50032 8.60156 7.74251 8.32031 8.96907 7.09375C9.77376 6.28125 10.5081 5.60156 10.6019 5.57812C10.8753 5.50781 11.0706 5.66406 12.3519 6.92969L13.5706 8.13281L13.9847 7.89062C14.9066 7.35156 15.9925 6.89062 17.055 6.59375L17.5003 6.47656V4.85938C17.5003 3.17188 17.5628 2.71094 17.8128 2.57812C18.0081 2.47656 21.9925 2.47656 22.1878 2.57812C22.4378 2.71094 22.5003 3.17188 22.5003 4.85938V6.47656L22.9534 6.59375C24.0081 6.89062 25.0941 7.35156 26.0159 7.89062L26.43 8.13281L27.6488 6.92969C28.93 5.66406 29.1253 5.50781 29.3988 5.57812C29.4925 5.60156 30.2269 6.28125 31.0394 7.09375C32.2581 8.32031 32.5003 8.60156 32.5003 8.78906C32.5003 8.97656 32.2738 9.23438 31.2034 10.3125L29.9066 11.6172L30.1488 12.0078C30.5863 12.7109 31.0784 13.8516 31.3441 14.7422L31.6019 15.625H33.4222C35.1097 15.625 35.2425 15.6328 35.3831 15.7734C35.6019 15.9922 35.6409 16.3984 35.6097 18.3672C35.5863 20.25 35.5706 20.3281 35.18 20.4766C35.0081 20.5391 35.0003 20.5859 35.0003 21.2109V21.8828L35.2972 21.8281C35.93 21.7109 36.4691 21.3047 36.7269 20.7422C36.8597 20.4609 36.8753 20.1875 36.8753 18.0547C36.8753 15.7969 36.8675 15.6562 36.7113 15.3359C36.5159 14.9219 36.0394 14.5078 35.6331 14.3906C35.4534 14.3359 34.7816 14.2969 33.9691 14.2969H32.6097L32.4691 13.8438C32.3909 13.6016 32.1722 13.0469 31.9847 12.625L31.6409 11.8516L32.5863 10.8828C33.6409 9.79688 33.8206 9.49219 33.8284 8.78125C33.8284 8 33.6409 7.72656 31.8909 6C30.4769 4.60156 30.305 4.46094 29.9222 4.34375C29.3988 4.1875 29.1956 4.1875 28.6644 4.34375C28.2894 4.45312 28.1253 4.58594 27.2269 5.46094L26.2113 6.46094L25.6253 6.16406C25.305 6.00781 24.7503 5.77344 24.3988 5.64844L23.7503 5.42969V3.99219C23.7503 2.6875 23.7347 2.51562 23.5863 2.21094C23.3909 1.79688 22.9144 1.38281 22.5081 1.26562C22.1488 1.15625 17.8284 1.14844 17.4613 1.25781Z" fill="white"/>
<path d="M18.4141 9.41406C14.8281 10.0938 12.0469 12.8594 11.3672 16.4297C11.3047 16.7656 11.25 17.2891 11.25 17.5938V18.1328L11.8984 18.1094L12.5391 18.0859L12.5938 17.4141C12.8281 14.3359 15.0703 11.6797 18.1406 10.8438C19.0781 10.5859 20.9219 10.5859 21.8594 10.8438C24.9297 11.6797 27.1719 14.3359 27.4062 17.4141L27.4609 18.0859L28.1094 18.1094L28.75 18.1328V17.5938C28.75 15.6641 27.7422 13.3672 26.2188 11.8516C25.1719 10.8047 23.6484 9.92969 22.2266 9.5625C21.2344 9.30469 19.3828 9.23438 18.4141 9.41406Z" fill="white"/>
<path d="M18.9069 15.6953C17.8209 16.0468 17.0631 16.7031 16.5788 17.7109C16.3209 18.2656 16.2897 18.3906 16.2663 19.1093C16.2194 20.3593 16.5319 21.1874 17.36 22.0156C18.735 23.3906 21.1022 23.4453 22.5084 22.1328C23.4303 21.2812 23.7897 20.3828 23.735 19.0859C23.7116 18.3984 23.6803 18.2578 23.4147 17.7109C22.7663 16.3359 21.4928 15.539 19.9694 15.5546C19.5866 15.5546 19.1647 15.6093 18.9069 15.6953ZM21.0319 17.0937C22.2584 17.6953 22.7819 19.1796 22.1881 20.3749C21.2663 22.2031 18.735 22.2031 17.8131 20.3749C17.1803 19.0937 17.8209 17.5156 19.1959 16.9921C19.6491 16.8203 20.5788 16.8749 21.0319 17.0937Z" fill="white"/>
<path d="M8.28189 18.1953C7.19595 18.5468 6.43814 19.2031 5.95376 20.2109C5.69595 20.7656 5.6647 20.8906 5.64126 21.6093C5.59439 22.8593 5.90689 23.6874 6.73501 24.5156C8.11001 25.8906 10.4772 25.9453 11.8834 24.6328C12.8053 23.7812 13.1647 22.8828 13.11 21.5859C13.0866 20.8984 13.0553 20.7578 12.7897 20.2109C12.1413 18.8359 10.8678 18.039 9.34439 18.0546C8.96157 18.0546 8.5397 18.1093 8.28189 18.1953ZM10.4069 19.5937C11.6334 20.1953 12.1569 21.6796 11.5631 22.8749C10.6413 24.7031 8.11001 24.7031 7.18814 22.8749C6.55532 21.5937 7.19595 20.0156 8.57095 19.4921C9.02407 19.3203 9.95376 19.3749 10.4069 19.5937Z" fill="white"/>
<path d="M29.5319 18.1953C28.4459 18.5468 27.6881 19.2031 27.2038 20.2109C26.9459 20.7656 26.9147 20.8906 26.8913 21.6093C26.8444 22.8593 27.1569 23.6874 27.985 24.5156C29.36 25.8906 31.7272 25.9453 33.1334 24.6328C34.0553 23.7812 34.4147 22.8828 34.36 21.5859C34.3366 20.8984 34.3053 20.7578 34.0397 20.2109C33.3913 18.8359 32.1178 18.039 30.5944 18.0546C30.2116 18.0546 29.7897 18.1093 29.5319 18.1953ZM31.6569 19.5937C32.8834 20.1953 33.4069 21.6796 32.8131 22.8749C31.8913 24.7031 29.36 24.7031 28.4381 22.8749C27.8053 21.5937 28.4459 20.0156 29.8209 19.4921C30.2741 19.3203 31.2038 19.3749 31.6569 19.5937Z" fill="white"/>
<path d="M16.1096 23.8203C14.9768 24.1016 13.8518 24.8203 13.1174 25.7266L12.758 26.1797L9.44554 26.1719C6.36742 26.1719 6.08617 26.1797 5.50804 26.3281C3.85179 26.7422 2.53929 27.8125 1.7971 29.3359C1.28929 30.3828 1.2346 30.7344 1.26585 33.1953C1.28929 35.2109 1.30492 35.3828 1.46898 35.8203C1.83617 36.8047 2.58617 37.6719 3.51585 38.1875C4.43773 38.6953 4.45335 38.7031 8.34398 38.7344L11.8752 38.7578V38.0938V37.4219H9.06273H6.25023V33.9844V30.5469H5.62523H5.00023V33.9375V37.3359L4.76585 37.2656C4.32835 37.1406 3.74242 36.7656 3.39085 36.3906C2.64085 35.5859 2.46117 34.7812 2.52367 32.5391C2.55492 31.3906 2.59398 31.0312 2.7346 30.5859C3.07835 29.4922 3.86742 28.5234 4.83617 28.0156C5.78148 27.5234 5.95335 27.5 9.20335 27.5H12.1252L12.0784 27.6719C11.8909 28.3438 11.8674 28.8281 11.8909 32.5L11.9143 36.4453L12.1252 36.8906C12.5471 37.7969 13.4455 38.4844 14.4455 38.6719C14.6721 38.7109 15.3205 38.75 15.8674 38.75H16.8752V33.7109V28.6719H16.2502H15.6252V33.0469V37.4219H15.2502C14.4065 37.4219 13.7659 37.0703 13.3909 36.3906L13.1643 35.9766V32.3047V28.6328L13.383 28.0234C13.7815 26.8906 14.508 26.0156 15.469 25.5156C16.4143 25.0156 16.5627 25 20.0002 25C23.3987 25 23.5627 25.0156 24.469 25.4766C25.0393 25.7656 25.7737 26.4375 26.1409 27.0078C26.2893 27.2266 26.5002 27.6875 26.6174 28.0234L26.8362 28.6328V32.3047V35.9766L26.6096 36.3906C26.2346 37.0703 25.594 37.4219 24.7502 37.4219H24.3752V33.0469V28.6719H23.7502H23.1252V33.7109V38.75H24.133C24.6799 38.75 25.3284 38.7109 25.5549 38.6719C26.5549 38.4844 27.4534 37.7969 27.8752 36.8906L28.0862 36.4453L28.1096 32.4844C28.1252 29.125 28.1096 28.4531 28.008 28.0547C27.9455 27.8047 27.8909 27.5703 27.8909 27.5469C27.8909 27.5234 29.2034 27.5 30.8049 27.5C34.0002 27.5 34.1877 27.5234 35.094 27.9766C35.6643 28.2656 36.3987 28.9375 36.7659 29.5078C36.9143 29.7266 37.1174 30.1875 37.2346 30.5234C37.4143 31.0625 37.4455 31.2891 37.4768 32.5391C37.5393 34.7891 37.3596 35.5938 36.6096 36.3906C36.258 36.7656 35.6721 37.1406 35.2346 37.2656L35.0002 37.3359V33.9375V30.5469H34.3752H33.7502V33.9844V37.4219H30.9377H28.1252V38.0938V38.7578L31.6643 38.7344C34.7893 38.7031 35.2424 38.6875 35.6252 38.5625C37.0393 38.1094 38.133 37.0312 38.5549 35.6875C38.7424 35.0938 38.7502 34.9844 38.7502 33.0156C38.7502 31.2266 38.7268 30.8828 38.594 30.3594C38.094 28.3906 36.508 26.8359 34.4924 26.3281C33.9143 26.1797 33.633 26.1719 30.5549 26.1719L27.2424 26.1797L26.8205 25.6641C26.0705 24.7578 25.0784 24.1406 23.8752 23.8281C23.2971 23.6797 23.0237 23.6719 19.969 23.6797C17.0862 23.6797 16.6096 23.7031 16.1096 23.8203Z" fill="white"/>
<path d="M17.5 38.0859V38.75H20H22.5V38.0859V37.4219H20H17.5V38.0859Z" fill="white"/>
</svg>
