<svg width="40" height="40" viewBox="0 0 40 40" fill="none" xmlns="http://www.w3.org/2000/svg">
<g clip-path="url(#clip0_6646_1328)">
<path d="M13.1637 4.71876C12.7341 4.91407 12.2809 5.3672 12.1169 5.75782L12.0153 6.00782L6.72624 6.03126L1.44499 6.0547L1.02312 6.28907C0.577807 6.53907 0.312182 6.82814 0.11687 7.28907C0.0153073 7.53907 -0.000317725 9.09376 -0.000317725 20.7656C-0.000317725 35.2891 -0.0393802 34.2188 0.484057 34.8047C0.61687 34.9609 0.874682 35.1641 1.04656 35.2578L1.36687 35.4297L7.84343 35.4531C15.1872 35.4766 14.82 35.5 15.4372 34.8672C15.6169 34.6797 15.8122 34.4063 15.8591 34.2578L15.9528 33.9844H19.9997H24.0466L24.1481 34.2734C24.195 34.4297 24.3903 34.7031 24.5778 34.8906C25.2106 35.5 24.8512 35.4766 32.1559 35.4531L38.6325 35.4297L38.9528 35.2578C39.1247 35.1641 39.3825 34.9609 39.5153 34.8047C40.0387 34.2188 39.9997 35.2891 39.9997 20.7656C39.9997 9.09376 39.9841 7.53907 39.8825 7.28907C39.6872 6.82814 39.4216 6.53907 38.9762 6.28907L38.5544 6.0547L33.2731 6.03126L27.9841 6.00782L27.8825 5.75782C27.7184 5.3672 27.2653 4.91407 26.8356 4.71876L26.445 4.53126H19.9997H13.5544L13.1637 4.71876ZM26.4372 5.66407C26.5778 5.73439 26.7653 5.92189 26.8591 6.08595L27.0309 6.39064V19.2266C27.0309 31.2969 27.0231 32.0859 26.8903 32.3359C26.82 32.4844 26.6559 32.6797 26.5387 32.7656C26.32 32.9297 26.2653 32.9297 19.9997 32.9297C13.7341 32.9297 13.6794 32.9297 13.4606 32.7656C13.3434 32.6797 13.1794 32.4844 13.1091 32.3359C12.9762 32.0859 12.9684 31.2969 12.9684 19.2266V6.39064L13.1403 6.08595C13.4528 5.52345 13.0856 5.54689 19.9841 5.54689C25.4059 5.54689 26.2184 5.56251 26.4372 5.66407ZM11.9528 19.5938C11.9528 33.4844 11.9216 32.6328 12.4606 33.2578C12.8512 33.7188 13.3356 33.9219 14.1637 33.9688C14.7419 34 14.8278 34.0234 14.7497 34.1172C14.4684 34.4609 14.5544 34.4531 7.99187 34.4531C1.95281 34.4531 1.74968 34.4453 1.50749 34.2969C1.36687 34.2188 1.19499 34.0547 1.11687 33.9297C0.984057 33.7266 0.976245 33.1172 0.976245 20.8203C0.976245 10.0234 0.99187 7.89064 1.08562 7.67189C1.19499 7.40626 1.48406 7.15626 1.75749 7.08595C1.84343 7.07032 4.17156 7.04689 6.93718 7.03907L11.9528 7.03126V19.5938ZM38.5622 7.2422C39.0544 7.59376 39.0231 6.71876 39.0231 20.8203C39.0231 33.1172 39.0153 33.7266 38.8825 33.9297C38.8044 34.0547 38.6325 34.2188 38.4919 34.2969C38.2497 34.4453 38.0466 34.4531 32.0075 34.4531C25.445 34.4531 25.5309 34.4609 25.2497 34.1172C25.1716 34.0234 25.2575 34 25.8356 33.9688C26.6637 33.9219 27.1481 33.7188 27.5387 33.2578C28.0778 32.6328 28.0466 33.4844 28.0466 19.5938V7.02345L33.1872 7.04689L38.32 7.07032L38.5622 7.2422Z" fill="white"/>
<path d="M19.0859 7.15626C18.5937 7.33595 18.0625 7.85157 17.8047 8.39845C17.375 9.3047 17.5547 10.4219 18.25 11.1328C18.6875 11.5859 19.1328 11.7891 19.875 11.8672C20.5859 11.9453 20.9375 12.1484 21.2187 12.625C21.75 13.5313 21.0625 14.7188 20 14.7188C19.289 14.7188 18.7422 14.2188 18.5937 13.4375C18.5078 12.9688 18.3672 12.8125 18.0469 12.8125C17.3515 12.8125 17.4375 14.0938 18.1719 14.9141C18.6875 15.4844 19.2578 15.7422 20 15.7344C20.7812 15.7344 21.2812 15.5156 21.789 14.9531C22.2812 14.4141 22.4453 13.9375 22.4062 13.1797C22.3437 11.9453 21.4687 11.0156 20.2578 10.8906C19.3828 10.8047 19.0156 10.6016 18.75 10.0703C18.2734 9.14064 18.9531 8.03126 20 8.03126C20.7422 8.03126 21.4062 8.65626 21.4062 9.35939C21.4062 9.69532 21.6094 9.92189 21.914 9.92189C22.3281 9.92189 22.4453 9.7422 22.4062 9.1797C22.3281 8.28907 21.6875 7.4297 20.8828 7.15626C20.4297 7.00001 19.5234 7.00782 19.0859 7.15626Z" fill="white"/>
<path d="M16.297 17.5938C16.133 17.8203 16.1408 17.9922 16.3127 18.1953C16.4455 18.3594 16.4533 18.3594 20.0392 18.3438L23.6252 18.3203L23.7502 18.1016C23.8517 17.9141 23.8517 17.8672 23.7502 17.6719L23.6252 17.461L20.0236 17.4375L16.4142 17.4219L16.297 17.5938Z" fill="white"/>
<path d="M16.3281 21.875C16.2422 21.9609 16.1719 22.1172 16.1719 22.2266C16.1719 22.3359 16.2422 22.4922 16.3281 22.5781C16.4766 22.7266 16.5859 22.7344 20 22.7344C23.4141 22.7344 23.5234 22.7266 23.6719 22.5781C23.7578 22.4922 23.8281 22.3359 23.8281 22.2266C23.8281 22.1172 23.7578 21.9609 23.6719 21.875C23.5234 21.7266 23.4141 21.7188 20 21.7188C16.5859 21.7188 16.4766 21.7266 16.3281 21.875Z" fill="white"/>
<path d="M16.4837 26.1172C16.2025 26.2578 16.1087 26.5781 16.2806 26.8281L16.4056 27.0312H19.9994H23.5931L23.7181 26.8281C23.8197 26.6797 23.8353 26.5781 23.7806 26.4219C23.64 26.0234 23.5697 26.0156 19.9994 26.0156C17.4915 26.0156 16.6322 26.0391 16.4837 26.1172Z" fill="white"/>
<path d="M16.0466 28.8672C15.8513 29.0625 15.8513 29.0781 15.8748 30.1641C15.8982 31.1484 15.9138 31.2734 16.0466 31.375C16.2732 31.5391 23.7263 31.5391 23.9529 31.375C24.0857 31.2734 24.1013 31.1484 24.1248 30.1641C24.1482 29.0781 24.1482 29.0625 23.9529 28.8672L23.7576 28.6719H19.9998H16.242L16.0466 28.8672ZM23.1248 30.0781V30.4688H19.9998H16.8748V30.0781V29.6875H19.9998H23.1248V30.0781Z" fill="white"/>
<path d="M5.96094 8.9844C5.49219 9.08597 5.16406 9.26565 4.74219 9.6719C4.26562 10.1407 4.0625 10.6641 4.0625 11.4375C4.0625 11.9141 4.10156 12.0782 4.30469 12.4844C4.69531 13.2813 5.33594 13.6875 6.36719 13.8203C7.10938 13.9141 7.48438 14.1407 7.73438 14.6485C8.17969 15.5703 7.51562 16.6563 6.49219 16.6563C6.07031 16.6563 5.75781 16.5157 5.46094 16.1953C5.1875 15.9063 5.10938 15.7344 5.04688 15.2969C4.98438 14.8985 4.85156 14.7657 4.5 14.7657C4.20312 14.7657 4.0625 14.961 4.0625 15.3828C4.0625 15.9219 4.26562 16.4297 4.65625 16.8672C5.82031 18.1641 7.85156 17.8828 8.6875 16.3125C8.83594 16.0313 8.86719 15.8516 8.86719 15.2735C8.86719 14.4532 8.71094 14.0391 8.19531 13.5235C7.77344 13.1016 7.3125 12.8985 6.625 12.8203C6.30469 12.7813 5.9375 12.6953 5.80469 12.625C5.125 12.2813 4.86719 11.3438 5.25781 10.6797C5.49219 10.2813 5.70312 10.125 6.15625 10C6.96094 9.78909 7.89062 10.4922 7.89062 11.3282C7.89062 11.7969 8.48438 12.0625 8.78906 11.7188C8.89844 11.5938 8.92188 11.4766 8.89062 11.1094C8.8125 10.2735 8.23438 9.46878 7.46875 9.14065C7.07031 8.96097 6.39844 8.89847 5.96094 8.9844Z" fill="white"/>
<path d="M2.8125 19.0625C2.72656 19.1484 2.65625 19.3047 2.65625 19.4141C2.65625 19.5234 2.72656 19.6797 2.8125 19.7656C2.96094 19.9141 3.07031 19.9219 6.47656 19.9219H9.99219L10.1562 19.7109C10.3438 19.4766 10.3125 19.1719 10.1016 19C10 18.9297 9.14844 18.9062 6.46875 18.9062C3.07031 18.9062 2.96094 18.9141 2.8125 19.0625Z" fill="white"/>
<path d="M2.85924 23.3672C2.61705 23.5547 2.5858 23.8984 2.79674 24.0859C2.92955 24.2031 3.29674 24.2188 6.50767 24.2188H10.0702L10.1874 24.0469C10.3592 23.7969 10.3436 23.6172 10.117 23.3984L9.92955 23.2031H6.49986C3.1483 23.2031 3.06236 23.2031 2.85924 23.3672Z" fill="white"/>
<path d="M2.78085 27.75C2.60897 27.9922 2.6246 28.25 2.8121 28.4375C2.96053 28.5859 3.06991 28.5938 6.44491 28.5938H9.92928L10.1246 28.3906C10.2808 28.2422 10.3121 28.1484 10.273 27.9844C10.1793 27.5703 10.234 27.5781 6.4371 27.5781H2.89803L2.78085 27.75Z" fill="white"/>
<path d="M2.54688 29.9297C2.34375 30.0859 2.34375 30.0937 2.34375 31.1797C2.34375 32.1641 2.35938 32.2812 2.5 32.4219C2.64844 32.5703 2.75781 32.5781 6.47656 32.5781C10.6328 32.5781 10.4844 32.5937 10.5938 32.1484C10.6172 32.0469 10.625 31.5391 10.6094 31.0156C10.5859 30.125 10.5703 30.0547 10.3984 29.9141C10.2266 29.7734 10.0391 29.7656 6.48438 29.7656C2.82812 29.7656 2.75 29.7656 2.54688 29.9297ZM9.60938 31.1719V31.5625H6.48438H3.35938V31.1719V30.7812H6.48438H9.60938V31.1719Z" fill="white"/>
<path d="M32.9916 8.98441C31.2181 9.3516 30.4759 11.6172 31.6869 12.961C32.1556 13.4766 32.64 13.7266 33.3744 13.8125C34.0697 13.8985 34.3744 14.0469 34.6556 14.4141C34.8744 14.711 34.9837 15.2813 34.89 15.6563C34.8275 15.9141 34.4134 16.3828 34.1166 16.5391C33.7884 16.7032 33.1869 16.6953 32.8822 16.5157C32.4837 16.2813 32.1869 15.8594 32.1166 15.4063C32.0384 14.9063 31.9212 14.7657 31.6009 14.7657C31.2025 14.7657 31.0619 14.9844 31.1087 15.5313C31.265 17.2032 33.0931 18.1797 34.6556 17.4219C35.1009 17.2032 35.6556 16.5782 35.8119 16.1172C35.8822 15.9141 35.9369 15.5 35.9369 15.1953C35.9369 14.7266 35.8978 14.5547 35.7025 14.1563C35.2884 13.336 34.6712 12.9375 33.6322 12.8203C32.9056 12.7344 32.515 12.5 32.2728 12.0157C31.9759 11.3907 32.0931 10.7813 32.6009 10.336C33.1244 9.88285 33.8197 9.84379 34.3822 10.2422C34.6166 10.4063 34.8978 10.9375 34.9603 11.3438C35.015 11.7032 35.1791 11.875 35.4603 11.875C36.1791 11.875 36.0853 10.586 35.3041 9.73441C34.7259 9.09379 33.8353 8.81254 32.9916 8.98441Z" fill="white"/>
<path d="M29.8982 19C29.6873 19.1719 29.656 19.4766 29.8435 19.7109L30.0076 19.9219H33.5232C36.9295 19.9219 37.0388 19.9141 37.1873 19.7656C37.2732 19.6797 37.3435 19.5234 37.3435 19.4141C37.3435 19.3047 37.2732 19.1484 37.1873 19.0625C37.0388 18.9141 36.9295 18.9062 33.531 18.9062C30.8513 18.9062 29.9998 18.9297 29.8982 19Z" fill="white"/>
<path d="M29.9994 23.3047C29.7181 23.4453 29.6244 23.7656 29.7962 24.0156L29.9212 24.2188H33.5072C36.8744 24.2188 37.0931 24.2109 37.2103 24.0781C37.4056 23.8594 37.3744 23.5547 37.14 23.3672C36.9369 23.2031 36.8509 23.2031 33.5619 23.2031C31.015 23.2031 30.1478 23.2266 29.9994 23.3047Z" fill="white"/>
<path d="M29.8981 27.6719C29.8278 27.7266 29.7496 27.8672 29.7262 27.9844C29.6871 28.1484 29.7184 28.2422 29.8746 28.3906L30.0699 28.5938H33.5543C36.9293 28.5938 37.0387 28.5859 37.1871 28.4375C37.3746 28.25 37.3903 27.9922 37.2184 27.75L37.1012 27.5781H33.5621C30.859 27.5781 29.9996 27.6016 29.8981 27.6719Z" fill="white"/>
<path d="M29.6009 29.9141C29.429 30.0547 29.4134 30.125 29.39 31.0156C29.3743 31.5391 29.3822 32.0469 29.4056 32.1484C29.515 32.5937 29.3665 32.5781 33.5228 32.5781C37.2415 32.5781 37.3509 32.5703 37.4993 32.4219C37.64 32.2812 37.6556 32.1641 37.6556 31.1797C37.6556 29.6094 38.1087 29.7656 33.515 29.7656C29.9603 29.7656 29.7728 29.7734 29.6009 29.9141ZM36.64 31.1719V31.5625H33.515H30.39V31.1719V30.7812H33.515H36.64V31.1719Z" fill="white"/>
</g>
<defs>
<clipPath id="clip0_6646_1328">
<rect width="40" height="40" fill="white"/>
</clipPath>
</defs>
</svg>
