<svg width="40" height="40" viewBox="0 0 40 40" fill="none" xmlns="http://www.w3.org/2000/svg">
<path d="M11.1012 0.203125C10.984 0.359375 10.9372 0.523438 10.9372 0.828125V1.25H7.54654C3.93717 1.25 3.81217 1.25781 3.2731 1.64844C3.1481 1.73438 2.93717 1.99219 2.81217 2.21094L2.57779 2.61719V5.71875C2.57779 8.72656 2.5856 8.83594 2.73404 8.98438C2.82779 9.07812 2.99185 9.14062 3.16373 9.14062C3.3356 9.14062 3.49967 9.07812 3.59342 8.98438C3.74185 8.83594 3.74967 8.72656 3.74967 6.07031C3.74967 4.40625 3.78092 3.20312 3.8356 3.03125C3.97623 2.5 3.9606 2.5 7.65592 2.5H10.9372V3.16406V3.82812H8.24967C5.65592 3.82812 5.56217 3.83594 5.35904 3.99219L5.15592 4.14844V20.6328C5.15592 37.0078 5.15592 37.1094 5.31217 37.2656C5.46842 37.4219 5.56998 37.4219 17.4137 37.4219H29.3669L29.5231 37.2188C29.6872 37.0156 29.6872 36.9453 29.6872 32.6953V28.3828L30.0231 28.3359C30.2028 28.3125 30.4997 28.2656 30.6872 28.2344L31.0153 28.1797V33.1953C31.0153 38.8203 31.0387 38.5938 30.4762 38.75C30.2653 38.8047 26.0622 38.8203 17.195 38.8125L4.21842 38.7891L4.00748 38.5703L3.78873 38.3594L3.76529 24.4531L3.74967 10.5547L3.54654 10.3984C3.28092 10.1875 3.04654 10.1875 2.78092 10.3984L2.57779 10.5547V24.5781C2.57779 40.0625 2.53873 38.8828 3.06998 39.4453C3.2106 39.5859 3.4606 39.7734 3.63248 39.8516C3.92935 39.9922 4.4606 40 17.4215 40H30.8981L31.3044 39.7656C31.5231 39.6406 31.7809 39.4297 31.8669 39.3047C32.2653 38.7422 32.2653 38.8047 32.2653 33.0859V27.7578L32.6794 27.5703C33.8669 27.0234 35.2653 25.8047 36.0387 24.6328C36.9294 23.2891 37.3434 21.9766 37.3981 20.2734C37.445 19.0234 37.2809 18.0234 36.8669 16.9531C36.1481 15.0781 34.445 13.2422 32.6794 12.4297L32.2731 12.2422L32.2497 7.42969C32.2262 2.90625 32.2184 2.60156 32.0778 2.34375C31.8747 1.96094 31.5778 1.65625 31.2106 1.46094C30.9059 1.29688 30.8122 1.28906 27.3669 1.26562L23.8278 1.24219V0.78125C23.8278 0.414062 23.7965 0.28125 23.6715 0.15625C23.5153 0 23.4137 0 17.3903 0H11.2575L11.1012 0.203125ZM22.5778 3.16406V5.15625H20.3122H18.0465V4.76562C18.0465 4.29688 17.9294 4.03125 17.6794 3.91406C17.3903 3.78125 17.195 3.8125 16.9919 4.02344C16.8278 4.17969 16.7965 4.28906 16.7965 4.6875V5.15625H14.4919H12.1872V3.16406V1.17188H17.3825H22.5778V3.16406ZM30.7887 2.72656L31.0153 2.95312V7.39062V11.8203L30.6872 11.7656C30.4997 11.7344 30.2028 11.6875 30.0231 11.6641L29.6872 11.6172V8C29.6872 5.51562 29.6637 4.32031 29.6012 4.19531C29.445 3.84375 29.2887 3.82812 26.484 3.82812H23.8278V3.16406V2.5H27.195H30.5622L30.7887 2.72656ZM10.9372 5.46875C10.9372 5.9375 11.0544 6.20312 11.3044 6.32031C11.4372 6.38281 13.2575 6.40625 17.4684 6.40625H23.445L23.6325 6.21094C23.7965 6.05469 23.8278 5.94531 23.8278 5.54688V5.07812H26.1325H28.4372V8.34375V11.6016L27.6794 11.7344C25.8512 12.0547 24.3512 12.8281 23.0778 14.1094C19.8747 17.3438 19.8747 22.6562 23.0778 25.8906C24.3512 27.1719 25.9997 28.0156 27.7965 28.2891L28.4372 28.3828V32.2812V36.1719H17.4215H6.40592V20.625V5.07812H8.67154H10.9372V5.46875ZM30.4528 13.0156C32.6794 13.4766 34.6715 15.0781 35.5856 17.1484C35.9997 18.1016 36.1325 18.7656 36.1325 20C36.1325 20.9219 36.1012 21.25 35.9606 21.7578C35.234 24.4219 33.109 26.4375 30.4528 26.9844C29.7028 27.1406 28.3825 27.1484 27.6794 26.9922C24.2887 26.2734 21.9372 23.4062 21.9372 20C21.9372 16.6016 24.2653 13.7578 27.6559 13C28.2887 12.8594 29.7419 12.8672 30.4528 13.0156Z" fill="white"/>
<path d="M13.0859 7.92969C12.8906 8.11719 12.8906 8.125 12.8906 9.64844C12.8906 11.1719 12.8906 11.1797 13.0859 11.3672L13.2734 11.5625H17.4062H21.5391L21.7031 11.3828C21.8672 11.2109 21.875 11.1328 21.875 9.625C21.875 8.10938 21.8672 8.04688 21.7031 7.89062C21.5391 7.73438 21.4531 7.73438 17.4062 7.73438H13.2734L13.0859 7.92969ZM20.625 9.64844V10.3125H17.3828H14.1406V9.64844V8.98438H17.3828H20.625V9.64844Z" fill="white"/>
<path d="M7.92977 13.0781L7.73446 13.2734V14.8281C7.73446 16.8828 7.57039 16.7187 9.66414 16.7187H11.2423L11.3985 16.5156C11.5548 16.3203 11.5626 16.2031 11.5626 14.8046C11.5626 12.7734 11.7266 12.9374 9.69539 12.9062L8.12508 12.8828L7.92977 13.0781ZM10.3126 14.8046V15.4687H9.64852H8.98446V14.8046V14.1406H9.64852H10.3126V14.8046Z" fill="white"/>
<path d="M13.2264 12.9688C12.8592 13.1172 12.781 13.6484 13.0857 13.9453C13.2732 14.1406 13.281 14.1406 14.8279 14.1406C16.3514 14.1406 16.3826 14.1406 16.5467 13.9609C16.781 13.7109 16.7732 13.3281 16.5232 13.0859C16.3357 12.8906 16.3279 12.8906 14.867 12.8984C14.0623 12.8984 13.3201 12.9297 13.2264 12.9688Z" fill="white"/>
<path d="M13.2415 15.5625C12.8587 15.7656 12.7805 16.1641 13.054 16.5156L13.2102 16.7188H16.7571H20.304L20.4602 16.5156C20.7259 16.1797 20.6243 15.7188 20.2571 15.5547C19.9993 15.4375 13.4602 15.4375 13.2415 15.5625Z" fill="white"/>
<path d="M10.6947 18.1328C10.5775 18.1796 10.2259 18.5781 9.80407 19.1406L9.10876 20.0781L8.96813 19.8046C8.73376 19.3515 8.31188 19.2421 7.93688 19.539C7.63219 19.7734 7.67126 20.1093 8.07751 20.9218C8.53844 21.8437 8.79626 22.0468 9.23376 21.8515C9.42126 21.7656 11.2103 19.4921 11.4681 19.0078C11.6088 18.75 11.5775 18.5468 11.39 18.3281C11.1713 18.0937 10.9603 18.039 10.6947 18.1328Z" fill="white"/>
<path d="M13.2884 18.1328C12.8821 18.2969 12.7728 18.7344 13.054 19.0938L13.2103 19.2969H14.8118C16.304 19.2969 16.4134 19.2891 16.5618 19.1406C16.7259 18.9766 16.765 18.6016 16.64 18.3594C16.6009 18.2812 16.4525 18.1797 16.3196 18.1328C16.015 18.0234 13.554 18.0234 13.2884 18.1328Z" fill="white"/>
<path d="M13.0539 20.9062C12.757 21.2812 12.9054 21.7499 13.3507 21.8828C13.5304 21.9296 14.7961 21.9531 16.9367 21.9374L20.2492 21.914L20.4367 21.6953C20.6632 21.4296 20.6789 21.1796 20.4601 20.9062L20.3039 20.7031H16.757H13.2101L13.0539 20.9062Z" fill="white"/>
<path d="M7.89062 23.4531C7.74219 23.6094 7.73438 23.7188 7.73438 25.1719V26.7266L7.92969 26.9219L8.125 27.1172L9.6875 27.0938C11.0547 27.0703 11.2578 27.0547 11.3828 26.9297C11.5078 26.8047 11.5234 26.6016 11.5469 25.25C11.5703 23.7734 11.5625 23.6953 11.4062 23.4922L11.2422 23.2812H9.64844C8.10938 23.2812 8.04688 23.2891 7.89062 23.4531ZM10.3125 25.1953V25.8594H9.64844H8.98438V25.1953V24.5312H9.64844H10.3125V25.1953Z" fill="white"/>
<path d="M13.0541 23.4844C12.7494 23.875 12.9135 24.375 13.3822 24.4922C13.4838 24.5234 14.2104 24.5312 14.9916 24.5156C16.3822 24.4922 16.4213 24.4844 16.5697 24.3047C16.7729 24.0547 16.7651 23.6641 16.5385 23.4531C16.3666 23.2891 16.2885 23.2812 14.7885 23.2812H13.2104L13.0541 23.4844Z" fill="white"/>
<path d="M13.0858 26.0547C12.8514 26.2812 12.8358 26.6328 13.0389 26.8828L13.1874 27.0703H16.7499C20.703 27.0703 20.5077 27.0937 20.6014 26.5469C20.6327 26.3125 20.6092 26.2265 20.4452 26.0625L20.242 25.8594H16.7577H13.2733L13.0858 26.0547Z" fill="white"/>
<path d="M10.6399 28.4922C10.5852 28.5157 10.2102 28.9688 9.80398 29.5001C9.21023 30.2891 9.06179 30.4454 9.02273 30.3204C8.99929 30.2344 8.90554 30.0782 8.81961 29.9688C8.61648 29.711 8.12429 29.6876 7.88992 29.9219C7.63992 30.1719 7.70242 30.5079 8.14773 31.3672C8.57742 32.1954 8.74929 32.3438 9.17117 32.2344C9.46804 32.1641 11.5618 29.3672 11.5618 29.0469C11.5618 28.6251 11.0618 28.3204 10.6399 28.4922Z" fill="white"/>
<path d="M13.0859 28.6328C12.9609 28.75 12.8906 28.9141 12.8906 29.0625C12.8906 29.2109 12.9609 29.375 13.0859 29.4922C13.2734 29.6875 13.2812 29.6875 14.8047 29.6875C16.3281 29.6875 16.3359 29.6875 16.5234 29.4922C16.7969 29.2266 16.7891 28.8203 16.5156 28.6016C16.3203 28.4453 16.2031 28.4375 14.7891 28.4375C13.2812 28.4375 13.2734 28.4375 13.0859 28.6328Z" fill="white"/>
<path d="M13.0859 31.2109C12.9609 31.3281 12.8906 31.4922 12.8906 31.6406C12.8906 31.7891 12.9609 31.9531 13.0859 32.0703L13.2734 32.2656H16.7578H20.2422L20.4453 32.0625C20.6094 31.8984 20.6328 31.8125 20.5938 31.5781C20.5078 31 20.6328 31.0156 16.7422 31.0156H13.2734L13.0859 31.2109Z" fill="white"/>
<path d="M27.734 14.3437C27.1012 14.4766 26.1247 14.9453 25.4918 15.4141C23.359 17 22.6481 20.1562 23.8668 22.6094C24.8434 24.5625 26.8356 25.7812 29.07 25.7812C31.5856 25.7812 33.7653 24.1953 34.5856 21.7578C34.7731 21.1953 34.7965 21.0234 34.7965 20C34.7965 18.9922 34.7731 18.8047 34.5934 18.2656C33.7653 15.7891 31.5856 14.2031 29.0309 14.2266C28.5934 14.2266 28.0153 14.2812 27.734 14.3437ZM30.1168 15.5859C30.9762 15.8047 31.5543 16.1484 32.2262 16.8281C33.6715 18.2891 33.9918 20.1797 33.109 22.0078C32.7575 22.7344 31.7887 23.7109 31.0934 24.0469C30.4137 24.375 29.7731 24.5312 29.0856 24.5312C28.2965 24.5312 27.7965 24.4141 27.0387 24.0391C24.2653 22.6875 23.6637 19 25.859 16.8047C26.4215 16.2422 27.2653 15.7578 27.984 15.5859C28.5543 15.4453 29.5622 15.4453 30.1168 15.5859Z" fill="white"/>
<path d="M28.5932 16.3281C28.5073 16.4141 28.437 16.5703 28.437 16.6797C28.437 16.8203 28.3667 16.9062 28.187 17C26.5542 17.8203 26.9214 20.2891 28.7104 20.5859C29.2964 20.6797 29.3667 20.7031 29.5307 20.875C29.7495 21.1172 29.7339 21.5234 29.4917 21.7578C29.101 22.1562 28.4839 21.8984 28.3823 21.3125C28.3198 20.8828 28.1245 20.7031 27.7417 20.7031C27.4995 20.7031 27.3979 20.75 27.2651 20.9141C27.1245 21.1016 27.101 21.1953 27.1479 21.5156C27.2339 22.1719 27.5854 22.6875 28.1479 22.9766C28.3667 23.0938 28.437 23.1797 28.437 23.3203C28.437 23.6094 28.6948 23.8281 29.0464 23.8281C29.3745 23.8281 29.5776 23.6641 29.6714 23.3359C29.7026 23.2188 29.8901 23.0312 30.1167 22.875C30.3901 22.6953 30.5698 22.4922 30.726 22.1875C30.9214 21.8125 30.9448 21.6953 30.9214 21.2031C30.8745 20.1875 30.2573 19.5312 29.2339 19.3906C28.6323 19.3047 28.4057 19.1172 28.4057 18.7031C28.4057 18.1719 29.0464 17.8594 29.4448 18.1797C29.5385 18.2578 29.6557 18.4766 29.6948 18.6719C29.8042 19.1406 29.9526 19.2969 30.3276 19.2969C30.7964 19.2969 30.9604 19.0781 30.9214 18.5234C30.8823 17.9141 30.5698 17.3984 30.0698 17.0859C29.851 16.9531 29.687 16.7969 29.687 16.7188C29.687 16.6406 29.6167 16.4922 29.5229 16.375C29.3198 16.1172 28.8354 16.0859 28.5932 16.3281Z" fill="white"/>
</svg>
