<svg width="24" height="25" viewBox="0 0 24 25" fill="none" xmlns="http://www.w3.org/2000/svg">
<circle cx="17" cy="17.0869" r="6" fill="#7539FF"/>
<path d="M3.16992 7.52734L11.9999 12.6373L20.7699 7.55731" stroke="white" stroke-linecap="round" stroke-linejoin="round"/>
<path d="M12 21.697V12.627" stroke="white" stroke-linecap="round" stroke-linejoin="round"/>
<path d="M9.9306 2.5674L4.59061 5.53743C3.38061 6.20743 2.39062 7.88741 2.39062 9.26741V14.9174C2.39062 16.2974 3.38061 17.9774 4.59061 18.6474L9.9306 21.6175C11.0706 22.2475 12.9406 22.2475 14.0806 21.6175L19.4206 18.6474C20.6306 17.9774 21.6206 16.2974 21.6206 14.9174V9.26741C21.6206 7.88741 20.6306 6.20743 19.4206 5.53743L14.0806 2.5674C12.9306 1.9274 11.0706 1.9274 9.9306 2.5674Z" stroke="white" stroke-linecap="round" stroke-linejoin="round"/>
<path d="M16.9998 13.327V9.66705L7.50977 4.18701" stroke="white" stroke-linecap="round" stroke-linejoin="round"/>
</svg>
