<svg width="24" height="25" viewBox="0 0 24 25" fill="none" xmlns="http://www.w3.org/2000/svg">
<circle cx="18" cy="18.8262" r="6" fill="#7539FF"/>
<g clip-path="url(#clip0_6646_1257)">
<path d="M9.525 0.103125C9.41719 0.164062 8.54531 0.890625 7.58438 1.72031C6.3375 2.79375 5.79844 3.28594 5.71875 3.43125C5.62031 3.59531 5.60156 3.69375 5.60156 3.98438C5.60156 4.27969 5.62031 4.37344 5.72813 4.55625L5.85469 4.78125H5.10938H4.36406L4.31719 4.53281C4.28906 4.40156 4.21406 3.98438 4.14844 3.61406C4.02188 2.90625 3.97031 2.76094 3.7875 2.59219C3.58594 2.4 3.47344 2.39062 1.83281 2.39062C0.3 2.39062 0.24375 2.39531 0.121875 2.48906C0.028125 2.56406 0 2.625 0 2.76562C0 3.22969 0.01875 3.23438 1.78125 3.23438C2.75625 3.23438 3.23438 3.24844 3.23438 3.28125C3.23438 3.30937 3.75 6.22969 4.38281 9.76875C5.01562 13.3078 5.53125 16.2328 5.53125 16.2703C5.53125 16.3078 5.30625 16.6969 5.03438 17.1375C4.75781 17.5734 4.50469 18.0141 4.46719 18.1172C4.42969 18.2203 4.39688 18.4453 4.39688 18.6187C4.39219 19.2094 4.73906 19.7156 5.29688 19.9266C5.48906 20.0016 5.65781 20.0156 6.22969 20.0156H6.93281L6.76875 20.2828C6.52969 20.6812 6.41719 21.0234 6.38906 21.4453C6.31406 22.5703 7.00781 23.5875 8.07188 23.9109C8.33438 23.9906 8.48906 24.0047 8.92031 23.9906C9.4125 23.9766 9.46875 23.9625 9.81094 23.8031C10.2563 23.5875 10.7109 23.175 10.9125 22.7906C11.1516 22.3453 11.2172 22.0359 11.1938 21.4969C11.1703 20.9672 11.0672 20.6391 10.8047 20.25L10.6453 20.0156H13.2H15.75L15.5906 20.25C15.3422 20.6109 15.225 20.9625 15.2016 21.45C15.1547 22.2047 15.3703 22.7859 15.8859 23.3016C16.3828 23.7984 16.8797 24 17.6016 24C18.3234 24 18.8203 23.7984 19.3172 23.3016C20.1234 22.4953 20.25 21.2156 19.6172 20.2641L19.4531 20.0156H20.2078H20.9625L21.1031 19.875C21.225 19.7484 21.2438 19.7062 21.2203 19.5562C21.2016 19.4531 21.1406 19.3406 21.0703 19.2797L20.9484 19.1719H13.3078C4.74844 19.1719 5.46094 19.2047 5.29688 18.825C5.24531 18.7078 5.21719 18.5812 5.23594 18.5109C5.25 18.45 5.48438 18.0469 5.75156 17.6156C6.19688 16.9031 6.25313 16.8281 6.38906 16.8094C6.47344 16.7953 8.4375 16.6875 10.7578 16.5703C18.3844 16.1812 20.2266 16.0828 20.3672 16.0406C20.7563 15.9234 21.1688 15.5906 21.3422 15.2531C21.3797 15.1781 21.9844 13.2375 22.6922 10.9453C24.1219 6.28594 24.1172 6.30937 23.9062 5.75156C23.7844 5.42812 23.4656 5.08594 23.1328 4.92188L22.8984 4.80469L20.1984 4.78125L17.4984 4.75781L17.25 4.45312C15.8859 2.78437 14.0766 1.85156 11.7797 1.62656L11.2031 1.575V1.20937C11.2031 0.651562 11.0109 0.328125 10.5609 0.0984364C10.2797 -0.0421886 9.7875 -0.0375004 9.525 0.103125ZM10.275 0.923437C10.3453 0.989061 10.3594 1.07344 10.3594 1.50937C10.3594 2.1 10.4203 2.30156 10.6219 2.37656C10.6969 2.40469 11.0438 2.44219 11.3906 2.45625C12.7734 2.5125 14.0859 2.93437 15.1875 3.67031C15.6938 4.00781 16.5563 4.89375 16.9313 5.46094C18.0047 7.08281 18.6 9.19687 18.7406 11.8828C18.7828 12.6094 18.7594 12.75 18.6141 12.75C18.4828 12.75 18.45 12.6797 18.3047 12.1172C18.0094 10.95 17.4984 9.78281 16.8703 8.83125C16.4297 8.16562 15.5344 7.26562 14.9063 6.84844C13.8938 6.17344 12.9094 5.80312 11.7188 5.64375C10.9594 5.54531 10.6734 5.55469 10.5141 5.69062C10.3875 5.80312 10.3828 5.81719 10.3594 6.40312C10.3359 6.98438 10.3313 6.99844 10.2094 7.09219C10.1016 7.17188 10.0594 7.18125 9.96563 7.13437C9.74063 7.03594 6.47344 4.17656 6.44063 4.05469C6.42656 3.99375 6.43125 3.90937 6.45469 3.86719C6.47813 3.82969 7.26563 3.13125 8.20781 2.32031C10.0078 0.764061 10.0594 0.731249 10.275 0.923437ZM8.11875 6.72656C8.82188 7.33125 9.46875 7.86562 9.5625 7.90781C9.80625 8.02969 10.3266 8.02031 10.5703 7.88906C11.0109 7.65469 11.2031 7.31719 11.2031 6.77812V6.42188L11.4281 6.45C12.8484 6.61875 13.9125 7.06875 14.9109 7.93125C15.8813 8.76562 16.7531 10.1437 17.2781 11.6812L17.3859 12H12.5109C7.725 12 7.64063 12 7.54688 12.0938C7.31719 12.3234 7.41094 12.7078 7.72031 12.7922C7.84219 12.825 9.49688 12.8438 12.7547 12.8438H17.6156L17.6438 12.9656C17.6625 13.0312 17.7609 13.1766 17.8688 13.2937C18.3609 13.8234 19.1766 13.6969 19.5281 13.0312C19.6031 12.8953 19.6125 12.7734 19.6031 12.2812C19.5656 9.96094 19.05 7.61719 18.2156 5.9625L18.0469 5.625H20.325C22.3406 5.625 22.6219 5.63437 22.7672 5.7C22.9875 5.80781 23.1562 6.06562 23.1562 6.30469C23.1562 6.42188 22.6547 8.12344 21.8719 10.6781C20.5359 15.0516 20.55 15.0094 20.2359 15.1687C20.1375 15.2203 18.7969 15.3047 14.3531 15.5391C6.525 15.9469 6.37969 15.9562 6.36094 15.9328C6.35156 15.9234 5.93906 13.6359 5.44219 10.8516C4.95 8.06719 4.53281 5.75156 4.51875 5.70469C4.49531 5.62969 4.57031 5.625 5.66719 5.625H6.83906L8.11875 6.72656ZM9.44531 20.175C9.75938 20.3156 10.0688 20.6203 10.2141 20.9297C10.3781 21.2719 10.4016 21.7828 10.2656 22.1344C10.1438 22.4672 9.83906 22.8141 9.50625 22.9922C9.28125 23.1187 9.22031 23.1328 8.8125 23.1328C8.44688 23.1328 8.32969 23.1141 8.15156 23.025C7.80938 22.8609 7.56563 22.6172 7.40625 22.2937C7.20469 21.8859 7.17656 21.5719 7.3125 21.1359C7.40156 20.8406 7.45313 20.7562 7.70625 20.5031C7.94531 20.2641 8.05313 20.1937 8.30156 20.1141C8.68125 19.9875 9.08906 20.0109 9.44531 20.175ZM18.0609 20.1094C18.4547 20.2312 18.8297 20.5594 19.0172 20.9437C19.1297 21.1734 19.1484 21.2672 19.1484 21.6094C19.1484 21.9562 19.1297 22.0406 19.0078 22.2797C18.4219 23.4469 16.7578 23.4422 16.1859 22.275C16.0734 22.0453 16.0547 21.9516 16.0547 21.6094C16.0547 21.2766 16.0734 21.1687 16.1766 20.9531C16.3828 20.5219 16.7625 20.1984 17.1938 20.0812C17.5125 19.9969 17.7141 20.0016 18.0609 20.1094Z" fill="white"/>
</g>
<defs>
<clipPath id="clip0_6646_1257">
<rect width="24" height="24" fill="white"/>
</clipPath>
</defs>
</svg>
