<svg width="25" height="25" viewBox="0 0 25 25" fill="none" xmlns="http://www.w3.org/2000/svg">
<circle cx="18" cy="18" r="6" fill="#7539FF"/>
<path d="M9.74258 10.9569C9.64258 10.9469 9.52258 10.9469 9.41258 10.9569C7.03258 10.8769 5.14258 8.92691 5.14258 6.52691C5.14258 4.07691 7.12258 2.08691 9.58258 2.08691C12.0326 2.08691 14.0226 4.07691 14.0226 6.52691C14.0126 8.92691 12.1226 10.8769 9.74258 10.9569Z" stroke="white" stroke-linecap="round" stroke-linejoin="round"/>
<path d="M16.9923 4.08691C18.9323 4.08691 20.4923 5.65691 20.4923 7.58691C20.4923 9.47691 18.9923 11.0169 17.1223 11.0869C17.0423 11.0769 16.9523 11.0769 16.8623 11.0869" stroke="white" stroke-linecap="round" stroke-linejoin="round"/>
<path d="M4.74273 14.6469C2.32273 16.2669 2.32273 18.9069 4.74273 20.5169C7.49273 22.3569 12.0027 22.3569 14.7527 20.5169C17.1727 18.8969 17.1727 16.2569 14.7527 14.6469C12.0127 12.8169 7.50273 12.8169 4.74273 14.6469Z" stroke="white" stroke-linecap="round" stroke-linejoin="round"/>
<path d="M18.9219 20.0869C19.6419 19.9369 20.3219 19.6469 20.8819 19.2169C22.4419 18.0469 22.4419 16.1169 20.8819 14.9469C20.3319 14.5269 19.6619 14.2469 18.9519 14.0869" stroke="white" stroke-linecap="round" stroke-linejoin="round"/>
</svg>
