<svg width="24" height="25" viewBox="0 0 24 25" fill="none" xmlns="http://www.w3.org/2000/svg">
<circle cx="18" cy="18.5869" r="6" fill="#7539FF"/>
<path d="M12.1197 12.8669C12.0497 12.8569 11.9597 12.8569 11.8797 12.8669C10.1197 12.8069 8.71973 11.3669 8.71973 9.59689C8.71973 7.78689 10.1797 6.31689 11.9997 6.31689C13.8097 6.31689 15.2797 7.78689 15.2797 9.59689C15.2697 11.3669 13.8797 12.8069 12.1197 12.8669Z" stroke="white" stroke-linecap="round" stroke-linejoin="round"/>
<path d="M18.7398 19.467C16.9598 21.097 14.5998 22.087 11.9998 22.087C9.39977 22.087 7.03977 21.097 5.25977 19.467C5.35977 18.527 5.95977 17.607 7.02977 16.887C9.76977 15.067 14.2498 15.067 16.9698 16.887C18.0398 17.607 18.6398 18.527 18.7398 19.467Z" stroke="white" stroke-linecap="round" stroke-linejoin="round"/>
<path d="M12 22.0869C17.5228 22.0869 22 17.6098 22 12.0869C22 6.56407 17.5228 2.08691 12 2.08691C6.47715 2.08691 2 6.56407 2 12.0869C2 17.6098 6.47715 22.0869 12 22.0869Z" stroke="white" stroke-linecap="round" stroke-linejoin="round"/>
</svg>
