<svg width="64" height="39" viewBox="0 0 64 39" fill="none" xmlns="http://www.w3.org/2000/svg">
<path fill-rule="evenodd" clip-rule="evenodd" d="M29.3074 2.41667C28.8465 4.69067 30.6671 8.91841 32.6126 8.63009C33.4563 8.49208 33.5305 8.15912 33.2296 5.55205C32.499 -0.646221 29.6693 0.58662 29.3074 2.41667ZM42.7649 10.8019C41.7542 12.4173 43.8308 13.2068 45.6746 11.9171C47.5504 10.5879 49.7201 8.46214 50.9593 6.96764C52.2721 5.55947 50.597 4.32356 48.7512 5.3099C46.5683 6.45404 43.4576 9.67479 42.7649 10.8019ZM12.581 2.64634C11.0856 2.89526 14.4095 9.64881 16.258 10.1078C18.4162 10.6359 18.7021 10.1871 17.6483 7.83146C15.9943 4.10692 14.2954 2.35306 12.581 2.64634ZM31.5397 15.5212C30.5379 16.1599 29.3118 17.0748 28.8169 17.5236C24.5073 21.642 24.4531 21.6765 23.2234 20.2137C20.3687 16.8738 15.1185 13.8616 15.2243 18.5922C15.306 21.4533 16.237 26.8574 16.4015 28.6185C16.8074 33.253 17.379 34.1262 19.9414 34.092C26.3079 33.9744 34.946 35.855 40.8064 38.6305C42.2537 39.3262 42.3818 39.1684 43.225 36.1175C44.9263 29.9492 49.8672 24.6667 50.303 22.7133C50.7932 20.5158 46.2898 21.2354 39.6849 24.399L39.0107 24.7146L38.3159 23.977C36.8871 22.4699 35.8483 23.1702 36.3786 25.2692C36.8112 26.9736 37.3389 27.6273 39.2257 27.186C40.3031 26.937 41.8507 26.3502 44.0554 25.4207C44.9265 25.0557 45.6302 24.8166 45.6153 24.8832C45.546 25.194 42.8989 30.7086 42.894 30.7308L39.5956 29.692C36.9434 28.9838 36.3167 30.3353 38.988 31.374C39.2657 31.4825 42.0183 32.4695 42.0183 32.4695C42.0183 32.4695 41.6304 33.6879 41.1622 34.3291C40.6719 34.9654 40.0791 35.0196 39.2414 34.5064C32.6648 30.5691 20.4554 30.8511 20.4333 30.8462C19.9981 30.819 18.4217 19.7716 18.8008 19.53C18.8549 19.4954 19.2551 19.8876 19.6969 20.4057C24.7167 26.1161 25.366 26.1212 30.7474 20.634L33.2743 18.052L33.7616 19.3025C35.1773 22.9506 38.4981 22.2234 37.3367 19.5176C36.9348 18.6124 36.2411 17.2459 35.1157 15.1073C34.6131 14.133 33.5162 14.2611 31.5397 15.5212ZM60.3965 21.6097C59.496 21.8981 54.4454 24.9657 53.7903 25.6118C52.3791 27.0447 54.463 27.9057 56.7687 26.8356C59.4608 25.5953 63.3865 23.3021 63.4756 22.9025C63.676 22.1083 61.6192 21.23 60.3965 21.6097ZM3.22471 20.0163C6.27644 21.536 8.09019 22.1504 8.9094 21.9137C10.2477 21.5365 9.79862 20.947 7.1253 19.6049C6.87468 19.4791 4.42752 18.1641 2.63553 17.7643C1.35237 17.4781 -1.65997 17.5517 3.22471 20.0163Z" fill="#592AC6"/>
</svg>
